<svg xmlns="http://www.w3.org/2000/svg" viewBox="0 0 750 500" xmlns:v="https://vecta.io/nano"><style><![CDATA[.B{fill:#263238}.C{fill:#e0e0e0}.D{fill:#fff}.E{fill:#455a64}.F{fill:#ddd}.G{fill:#f5f5f5}.H{fill:#ebebeb}.I{fill:#ffbf9d}.J{fill:#fafafa}.K{fill:#ff9a6c}]]></style><path d="M37.11 249.37h70.8v73.81h-70.8z" class="C"/><path d="M32.31 249.37h70.8v73.81h-70.8z" class="G"/><path d="M103.14,323.2H32.29V249.35h70.85Zm-70.8-.05h70.75V249.39H32.34Z" class="C"/><path d="M41.83 259.29H93.6v53.96H41.83z" class="D"/><g class="C"><path d="M41.83 313.61a8.17 8.17 0 0 1-1.28 1.49l-3.29 3.34-3.38 3.23a8.33 8.33 0 0 1-1.5 1.25 8.35 8.35 0 0 1 1.28-1.48l3.29-3.34 3.39-3.25a8.54 8.54 0 0 1 1.49-1.24zm51.77-.13a8.35 8.35 0 0 1 1.48 1.28l3.34 3.29 3.24 3.38a7.49 7.49 0 0 1 1.24 1.5 9.49 9.49 0 0 1-1.48-1.27l-3.34-3.3-3.24-3.39a8 8 0 0 1-1.24-1.49zm-.14-54.04a8.32 8.32 0 0 1 1.27-1.44l3.29-3.33 3.39-3.24a9 9 0 0 1 1.49-1.25 7.51 7.51 0 0 1-1.27 1.48l-3.3 3.34-3.38 3.25a8.4 8.4 0 0 1-1.49 1.19zm-51.77.13a8.58 8.58 0 0 1-1.49-1.28L36.87 255l-3.24-3.38a7.49 7.49 0 0 1-1.24-1.5 9.21 9.21 0 0 1 1.47 1.27l3.35 3.3 3.24 3.39a8 8 0 0 1 1.24 1.49z"/><path d="M93.46 313.26a1.67 1.67 0 0 1 0-.27v-.75-2.91-11l-.1-39 .2.2H41.94h0l.23-.23v54l-.2-.2 37.38.1h10.5 2.78.72.25-.93-2.74l-10.45.05-37.51.1h-.2v-.19-54-.23h.24 51.62.2v.2l-.11 39.17v11 2.87.74c0 .18-.26.35-.26.35z"/></g><path d="M59.08 277.64h17.27v17.27H59.08z" class="H"/><path d="M634.65 66.92h90.43V198h-90.43z" class="C"/><path d="M630.12 66.92h90.43V198h-90.43z" class="G"/><path d="M641.36 81.11h67.96V183.8h-67.96z" class="D"/><g class="C"><path d="M709.32 183.8v-.5-1.46-5.63l-.06-21.15-.11-73.95.22.23h-68 0l.24-.25-.05 102.69-.19-.19 49.47.1h13.66 3.59 1.24-1.2-3.55-13.62l-49.59.11h-.2v-.2V80.91v-.24h.26 68 .23v.22l-.11 74.1-.06 21.1v5.58 1.44c0 .34-.17.69-.17.69z"/><path d="M720.81 66.92a16.34 16.34 0 0 1-1.61 2.34l-4.24 5.38-4.47 5.2a16.21 16.21 0 0 1-2 2 15.39 15.39 0 0 1 1.72-2.26l4.36-5.28 4.36-5.3a16.38 16.38 0 0 1 1.88-2.08z"/></g><path d="M709.67,183.47a84.23,84.23,0,0,0,11.85,14.83" class="D"/><path d="M721.52 198.3a14.42 14.42 0 0 1-2.06-1.88 65.72 65.72 0 0 1-8.41-10.52 12.86 12.86 0 0 1-1.38-2.43 19.17 19.17 0 0 1 1.67 2.24l4 5.36 4.34 5.11a18.18 18.18 0 0 1 1.84 2.12z" class="C"/><path d="M630.11,197.89,642,183.28" class="D"/><path d="M642 183.28a87.26 87.26 0 0 1-5.73 7.46 89.47 89.47 0 0 1-6.11 7.15 91.1 91.1 0 0 1 5.73-7.46 91.7 91.7 0 0 1 6.11-7.15zM630.12 66.92a79.76 79.76 0 0 1 5.75 6.87 82.84 82.84 0 0 1 5.37 7.21 81 81 0 0 1-5.75-6.88 83.69 83.69 0 0 1-5.37-7.2zm35.27 35.04h22.76v64.61h-22.76zM31.4 79.94H128v140.02H31.4z" class="C"/><path d="M26.56 79.94h96.6v140.02h-96.6z" class="G"/><path d="M38.57 95.1h72.6v109.69h-72.6z" class="D"/><g class="C"><path d="M111.16 204.79v-.54-1.55-6l-.07-22.59-.12-79 .24.24H38.63h0l.26-.26v109.69l-.21-.21 52.84.11 14.6.05h3.83 1.32-1.28-3.79-14.55l-53 .11h-.21v-.21l-.06-109.69v-.26h.28 72.58.24v.24l-.11 79.14-.07 22.54v6 1.53c0 .35-.14.66-.14.66z"/><path d="M123.44 79.94a17.41 17.41 0 0 1-1.73 2.5l-4.53 5.75-4.77 5.55a16.78 16.78 0 0 1-2.13 2.17 18.14 18.14 0 0 1 1.85-2.42l4.65-5.64 4.64-5.64a17.48 17.48 0 0 1 2.02-2.27z"/></g><path d="M111.53,204.44a90.28,90.28,0,0,0,12.67,15.83" class="D"/><path d="M124.2 220.27a14.22 14.22 0 0 1-2.21-2A69.43 69.43 0 0 1 113 207a15.73 15.73 0 0 1-1.48-2.59 17.94 17.94 0 0 1 1.78 2.38l4.31 5.73 4.64 5.46a22.46 22.46 0 0 1 1.95 2.29z" class="C"/><path d="M26.55,219.84q6.33-7.8,12.65-15.61" class="D"/><path d="M39.2 204.23a92.69 92.69 0 0 1-6.12 8 96.52 96.52 0 0 1-6.53 7.64 97.93 97.93 0 0 1 6.12-8 99.08 99.08 0 0 1 6.53-7.64zM26.56 79.94a84.29 84.29 0 0 1 6.15 7.34A89.37 89.37 0 0 1 38.44 95a85.45 85.45 0 0 1-6.15-7.35 90.24 90.24 0 0 1-5.73-7.71zm37.68 37.43h24.31v69.02H64.24zm477.386-68.512l8.86-.048.239 44.109-8.86.048z" class="C"/><path d="M464.828 49.044l22.96-.124.132 24.35-22.96.124z" class="H"/><path d="M487.677 48.92l22.96-.124.132 24.35-22.96.124z" class="G"/><path d="M464.86,55.8q22.89.2,45.8-.21a.25.25,0,0,0,0-.49c-15.25-.08-30.55,0-45.8.28a.21.21,0,0,0,0,.42Z" class="C"/><path d="M450.508 73.101l41.709-.226.107 19.85-41.709.226z" class="H"/><path d="M492.027 72.877l41.709-.226.107 19.85-41.709.226z" class="G"/><g class="C"><path d="M450.54 78.64c27.71.31 55.51 0 83.22-.41a.25.25 0 0 0 0-.49c-27.71-.14-55.52-.13-83.22.48a.21.21 0 0 0 0 .42zm-15.6 14.33h161.59v9.48H434.94z"/><path d="M461.4 96.38h6.56v12.13h-6.56zm97.92 0h6.56v12.13h-6.56z"/></g><path d="M550.277 32.401l8.86-.048.328 60.669-8.86.048z" class="H"/><path d="M559.218 43.733l13.77-.075.266 49.159-13.77.075z" class="G"/><path d="M572.9 53.15a99 99 0 0 1-13.78 0 99 99 0 0 1 13.78 0zm0-2.06a99 99 0 0 1-13.78 0 99 99 0 0 1 13.78 0zm0 34.36a99 99 0 0 1-13.78 0 99 99 0 0 1 13.78 0zm0-2.07a99 99 0 0 1-13.78 0 99 99 0 0 1 13.78 0zm-6.67-4.5c-.13 0-.24-5-.24-11.08s.11-11.08.24-11.08.24 5 .24 11.08-.11 11.08-.24 11.08z" class="C"/><path d="M573.05 55.75h14.99v37.11h-14.99z" class="H"/><path d="M557.12 42.75a2.55 2.55 0 1 1-2.54-2.55 2.54 2.54 0 0 1 2.54 2.55zm-3.33 7h1.58v36.09h-1.58z" class="C"/><path d="M234.58 72.63h48.65V85.5h-48.65z" class="G"/><path d="M262.66 99.06a1.35 1.35 0 0 1 0-.24v-.66-2.53l-.08-9.44.15.15-48.73.09.25-.24h0v12.87l-.24-.25 34.67.11 10.23.07h2.77.72.26-.23-.69-2.71l-10.18.07-34.85.24h-.25V86.19h0l.25-.25 48.65.09h.15v.16l-.08 9.53v2.5.63a1.66 1.66 0 0 1-.06.21z" class="C"/><path d="M658.31 221.17h48.65v12.87h-48.65z" class="G"/><g class="C"><path d="M686.39 247.6a1 1 0 0 1 0-.23v-.66-2.54l-.08-9.44.15.15-48.65.1c.11-.11-.25.24.24-.25h0v12.87l-.24-.24 34.67.11 10.23.07h2.77.72.26a.94.94 0 0 1-.23 0h-.69-2.72l-10.17.07-34.84.11h-.25v-12.97h0l.25-.25 48.65.1h.15v.15l-.08 9.53v2.5.64a1.23 1.23 0 0 1-.14.18zM387.34 58.46a2.07 2.07 0 0 1 0-.23v-.66-2.54l-.08-9.44.15.15-48.65.1.25-.25h0v6.52q0 3.23 0 6.33l-.24-.24 34.67.11 10.23.07h2.77.73.25-.22-.7-2.71l-10.18.07-34.84.11h-.24v-.24-6.33-6.38h0l.25-.25 48.65.1h.15v.15l-.08 9.53v2.5.64c-.15.12-.15.19-.16.18z"/><path d="M393.94 45.59a1.35 1.35 0 0 1 0-.24v-.69-2.58l-.1-9.36.18.18-29.31.1c-.22.22.3-.3.24-.25h0v6.61 6.24l-.23-.24 20.91.12 6.09.06h1.64.59a3.28 3.28 0 0 1-.53 0h-1.6l-6 .06-21.07.12h-.24v-.24-6.24-6.5h0l.25-.25 29.23.07h.18v.18l-.1 9.47v2.54c0 .62-.07.85-.13.84zm306.99 5.25a2.07 2.07 0 0 1 0-.23v-.66-2.53l-.08-9.45.15.15-48.65.1.25-.25h0v6.53q0 3.23 0 6.33l-.24-.24 34.67.11 10.23.07h2.77.73.25-.22-.7-2.71l-10.26.23-34.84.11H652v-.25-6.33V38h0l.25-.24 48.65.09h.15V38l-.08 9.54v2.5.63c-.03.11-.03.18-.04.17zm-553.3 5.36a1 1 0 0 1 0-.23v-.66-2.53l-.08-9.45.15.15-48.7.1.25-.25h0V56.2L99 56l34.67.11 10.23.07h2.77.72.26-.23-.69-2.71l-10.18.06-34.84.21h-.25v-13.1h0l.25-.25 48.65.1h.15v.15l-.08 9.54v2.49.62c-.08.14-.08.21-.09.2z"/></g><path d="M712.81 459.13c0 .14-149.83.26-334.61.26s-334.63-.12-334.63-.26 149.79-.26 334.63-.26l334.61.26z" class="B"/><path d="M591.9,454h-421a25.2,25.2,0,0,1-25.2-25.2V139.91a18.38,18.38,0,0,1,18.38-18.38H599.73A17.37,17.37,0,0,1,617.1,138.9V428.82A25.2,25.2,0,0,1,591.9,454Z" class="C"/><path d="M591.9 454l1-.07 1.27-.07c.5 0 1.08-.15 1.74-.24l1.06-.16 1.15-.3 1.26-.33 1.34-.5a23.54 23.54 0 0 0 2.93-1.31c.51-.25 1-.59 1.53-.9l.8-.49.77-.58a24.77 24.77 0 0 0 9.87-16l.22-1.43c.08-.48.06-1 .09-1.47l.07-3q0-3.08 0-6.39 0-6.6 0-14.06l-.09-168.31q0-26.64 0-55.77 0-14.53 0-29.66v-11.45l-.07-3.82a17.13 17.13 0 0 0-7.33-12.89 16.93 16.93 0 0 0-7.16-2.83c-.32 0-.64-.11-1-.14h-1-2-121.5-305.66-5.08-2.53l-1.24.06-1.24.18a7.34 7.34 0 0 0-1.22.25l-1.21.32a18.57 18.57 0 0 0-2.31.93 17.4 17.4 0 0 0-4.15 2.72A17.65 17.65 0 0 0 149 130a19.08 19.08 0 0 0-2.12 4.47 18.79 18.79 0 0 0-.8 4.88v5 117.93 147.43 17.51a61.62 61.62 0 0 0 .15 4.31l.32 2.12.52 2.08a25.23 25.23 0 0 0 3.7 7.63 24.85 24.85 0 0 0 13.58 9.49l2 .49 2.07.31 4.18.14h73.14 116.23l168.29.08L576 454h11.9 4-4H576l-45.76.05-168.29.08H245.72h-73.19c-1.39 0-2.81-.06-4.23-.14l-2.1-.32c-.71-.1-1.38-.33-2.08-.49a25.33 25.33 0 0 1-13.83-9.67 25.83 25.83 0 0 1-3.78-7.77l-.52-2.12-.33-2.16-.15-4.36q0-8.7 0-17.51V262.16q0-38.35 0-78V144.4v-5a19.37 19.37 0 0 1 .82-5 20.06 20.06 0 0 1 2.18-4.61 18.92 18.92 0 0 1 3.35-3.85 18.1 18.1 0 0 1 4.27-2.8 20.4 20.4 0 0 1 2.38-1l1.25-.32a7.71 7.71 0 0 1 1.25-.26l1.27-.19 1.29-.06c.86-.06 1.69 0 2.54 0h5.08 305.66 121.57 2l1 .05c.33 0 .66.09 1 .14a17.17 17.17 0 0 1 7.33 2.91 17.55 17.55 0 0 1 7.52 13.21c.09 1.3 0 2.57.06 3.85v11.42q0 15.12 0 29.66 0 29.1 0 55.77l-.08 168.31q0 7.45 0 14.06v6.39l-.07 3c0 .5 0 1-.1 1.48s-.15 1-.22 1.43a24.91 24.91 0 0 1-10 16.08l-.77.58-.8.49-1.55.91a26.85 26.85 0 0 1-2.94 1.3l-1.35.49-1.27.32-1.15.29-1.06.16a17.31 17.31 0 0 1-1.75.23l-1.27.06z" class="B"/><path d="M616.61 459.08H150.39A24.36 24.36 0 0 1 126 434.72v-3.79a.94.94 0 0 1 1-.93h508.8a.94.94 0 0 1 .94.94V439a20.1 20.1 0 0 1-20.13 20.08z" class="C"/><path d="M616.61 459.08l.68-.05a14.87 14.87 0 0 0 2-.18 19.08 19.08 0 0 0 7.5-2.65 19.34 19.34 0 0 0 4.55-3.71 20.2 20.2 0 0 0 3.78-6 20.82 20.82 0 0 0 1.46-8.11v-4.6-2.41c0-.41 0-.82-.27-1.07s-.69-.22-1.11-.23l-113.55.08-374.61.08H127a.78.78 0 0 0-.31.05.68.68 0 0 0-.38.45 4.65 4.65 0 0 0 0 .78v1.7l.1 3.37a22.92 22.92 0 0 0 1.43 6.5 25.93 25.93 0 0 0 1.35 3A27.22 27.22 0 0 0 131 449a24.24 24.24 0 0 0 10.28 8 25.5 25.5 0 0 0 6.37 1.63c2.17.21 4.39.16 6.6.16H293l168.41.06L575 459h30.87 8 2.74-2.74-8l-30.87.05-113.54.09-168.46.18h-99.46-39.29c-2.2 0-4.42 0-6.66-.17a25.74 25.74 0 0 1-6.51-1.66 24.77 24.77 0 0 1-10.53-8.25 26.76 26.76 0 0 1-1.84-2.86 29.72 29.72 0 0 1-1.38-3.11 23.71 23.71 0 0 1-1.46-6.65l-.1-3.41v-1.7a4.92 4.92 0 0 1 0-.91 1.22 1.22 0 0 1 1.2-.89h20.06l374.61.08 113.55.08h.63a1 1 0 0 1 .93.87v.63 2.41 4.6a20.94 20.94 0 0 1-1.5 8.17 20 20 0 0 1-3.83 6 20.06 20.06 0 0 1-12.14 6.33 14.18 14.18 0 0 1-2 .16z" class="B"/><rect x="165.06" y="141.83" width="431.39" height="272.36" rx="5.25" class="E"/><path d="M591.21 414.19s.31 0 .9-.1a5.36 5.36 0 0 0 2.42-1.12 5.2 5.2 0 0 0 1.88-3.85q0-2.65 0-6.15v-40.75l-.09-149.85q0-23.73 0-49.66 0-6.47 0-13.08V148a10.77 10.77 0 0 0-.06-1.62 5 5 0 0 0-1.39-2.82 5.08 5.08 0 0 0-2.8-1.44 9.88 9.88 0 0 0-1.64-.06h-29.1-118.77-272.15a5 5 0 0 0-3.79 1.72 4.82 4.82 0 0 0-1 1.87 7 7 0 0 0-.2 2.16v131.94q0 34.14 0 67v60.32a9.44 9.44 0 0 0 .38 3.78 5 5 0 0 0 2.54 2.62 4.91 4.91 0 0 0 1.8.44h1.94 111 103.49l149.85.08 40.74.05h10.59 3.61-3.61-10.59l-40.74.05-149.85.08H283.08h-57.65H172h-2a5.64 5.64 0 0 1-2-.48 5.56 5.56 0 0 1-2.78-2.87 5.31 5.31 0 0 1-.42-2v-62.05q0-32.85 0-67v-69.46q0-17.64 0-35.52v-26.95a7.66 7.66 0 0 1 .23-2.31 5.15 5.15 0 0 1 1.13-2.06 5.5 5.5 0 0 1 4.18-1.9h272.15 118.77 29.1a9.79 9.79 0 0 1 1.7.07 5.54 5.54 0 0 1 3 1.56 5.42 5.42 0 0 1 1.5 3.05 10.61 10.61 0 0 1 .06 1.68v14.73q0 25.9 0 49.66l-.08 149.85v40.75q0 3.5 0 6.15a5.27 5.27 0 0 1-1.93 3.89 5.2 5.2 0 0 1-2.44 1.11 4.13 4.13 0 0 1-.68.06zm-256.26 15.24l6.34 10.75h89.17l5.89-10.75h-101.4zm49.96-296.82a3.54 3.54 0 1 1-3.54-3.54 3.54 3.54 0 0 1 3.54 3.54z" class="B"/><g class="G"><rect x="312.68" y="275.39" width="137.09" height="23.68" rx="1.45"/><rect x="312.81" y="307.92" width="137.09" height="23.68" rx="1.45"/></g><path d="M322.07 287.08V284h.78v3c0 1.22.56 1.76 1.54 1.76s1.55-.54 1.55-1.76v-3h.76v3.11a2.32 2.32 0 1 1-4.63 0zm5.6 1.92l.31-.6a2.68 2.68 0 0 0 1.46.43c.69 0 1-.21 1-.56 0-.93-2.62-.12-2.62-1.77 0-.74.67-1.24 1.73-1.24a3.07 3.07 0 0 1 1.51.37l-.32.59a2.19 2.19 0 0 0-1.2-.32c-.65 0-1 .24-1 .57 0 1 2.62.18 2.62 1.79 0 .75-.69 1.22-1.79 1.22a3 3 0 0 1-1.7-.48zm8.17-1.39h-3.36a1.4 1.4 0 0 0 1.5 1.22 1.55 1.55 0 0 0 1.19-.5l.42.48a2.26 2.26 0 0 1-3.86-1.45 2 2 0 0 1 2.08-2.1 2 2 0 0 1 2 2.13 1.7 1.7 0 0 1 .03.22zm-3.36-.53h2.65a1.33 1.33 0 0 0-2.65 0zm6.64-1.82v.74H339a1.24 1.24 0 0 0-1.3 1.4v2.07h-.75v-4.15h.72v.7a1.57 1.57 0 0 1 1.45-.76zm4.88 1.79v2.39h-.75v-2.3c0-.81-.41-1.21-1.12-1.21a1.22 1.22 0 0 0-1.31 1.37v2.14h-.75v-4.15h.72v.63a1.76 1.76 0 0 1 1.49-.66 1.6 1.6 0 0 1 1.72 1.79zm4.65-.11v2.5h-.71v-.55a1.55 1.55 0 0 1-1.36.59c-.93 0-1.53-.5-1.53-1.22s.43-1.21 1.67-1.21h1.18v-.15c0-.63-.36-1-1.11-1a2.11 2.11 0 0 0-1.31.45l-.31-.56a2.72 2.72 0 0 1 1.71-.53c1.12 0 1.77.54 1.77 1.68zm-.75 1.23v-.58h-1.15c-.74 0-1 .29-1 .64s.35.67.92.67a1.18 1.18 0 0 0 1.23-.73zm9.02-1.12v2.39h-.75v-2.3c0-.81-.39-1.21-1.07-1.21a1.2 1.2 0 0 0-1.24 1.37v2.14h-.75v-2.3c0-.81-.39-1.21-1.07-1.21a1.2 1.2 0 0 0-1.24 1.37v2.14h-.75v-4.15h.72v.62a1.66 1.66 0 0 1 1.43-.65 1.53 1.53 0 0 1 1.43.76 1.88 1.88 0 0 1 1.6-.76 1.58 1.58 0 0 1 1.69 1.79zm5.14.56h-3.36a1.41 1.41 0 0 0 1.5 1.22 1.58 1.58 0 0 0 1.2-.5l.41.48a2.26 2.26 0 0 1-3.86-1.45 2 2 0 0 1 2.08-2.1 2 2 0 0 1 2.05 2.13 1.8 1.8 0 0 1-.02.22zm-3.36-.53h2.66a1.34 1.34 0 0 0-2.66 0z" class="B"/><rect x="313.03" y="344.6" width="137.09" height="23.68" rx="1.45" class="F"/><g class="D"><path d="M369.19,353.88h1.55v4.25h2.62v1.23h-4.17Z"/><path d="M373.61 357.23a2.4 2.4 0 1 1 2.4 2.2 2.22 2.22 0 0 1-2.4-2.2zm3.29 0a.89.89 0 0 0-.89-1 1 1 0 0 0 0 2 .89.89 0 0 0 .89-1zm6.75-2.12v3.47c0 1.61-.91 2.36-2.49 2.36a3.69 3.69 0 0 1-2.1-.55l.54-1a2.46 2.46 0 0 0 1.43.45c.8 0 1.13-.36 1.13-1v-.14a1.59 1.59 0 0 1-1.26.5 2.05 2.05 0 1 1 0-4.1 1.52 1.52 0 0 1 1.33.59v-.52zm-1.47 2a.86.86 0 0 0-.92-.86.87.87 0 1 0 0 1.73.86.86 0 0 0 .92-.9zm4.82-3.23h1.55v5.48H387zm7.05 3.05v2.43h-1.49v-2.19c0-.61-.27-.87-.7-.87s-.84.3-.84 1v2.06h-1.49v-4.25H391v.46a1.81 1.81 0 0 1 1.34-.53 1.66 1.66 0 0 1 1.71 1.89z"/></g><g class="B"><use href="#B"/><path d="M330,319.9a2.06,2.06,0,1,1-2.06-2.06A2.06,2.06,0,0,1,330,319.9Z"/><use href="#B" x="12.96"/><use href="#B" x="19.44"/><path d="M349.42 319.9a2.07 2.07 0 1 1-2.07-2.06 2.07 2.07 0 0 1 2.07 2.06zm6.48 0a2.07 2.07 0 1 1-2.06-2.06 2.06 2.06 0 0 1 2.06 2.06z"/><use href="#B" x="38.89"/><use href="#B" x="45.37"/></g><path d="M439.22 318.4h-.54v-.76a2.56 2.56 0 0 0-5.11 0v.76h-.77a.94.94 0 0 0-.94.94v4.15a.94.94 0 0 0 .94.94h6.42a.94.94 0 0 0 .94-.94v-4.15a.94.94 0 0 0-.94-.94zm-2.22 4.68h-2l.5-1.27a1.06 1.06 0 1 1 .92 0zm.92-4.68h-3.55v-.76a1.78 1.78 0 0 1 3.55 0z" class="C"/><circle cx="380.92" cy="211.56" r="35.74" transform="matrix(.158503 -.987359 .987359 .158503 111.68 554.16)" class="J"/><path d="M416.66 211.56s0-.19-.06-.57-.06-1-.11-1.7c0-.37-.05-.79-.07-1.25s-.15-.95-.23-1.49a24.91 24.91 0 0 0-.75-3.69 33.89 33.89 0 0 0-4-9.47 35.68 35.68 0 0 0-24-16.72 32.8 32.8 0 0 0-4.49-.52c-.76 0-1.53-.1-2.31-.09l-2.35.12c-.4 0-.79 0-1.19.08l-1.18.18-2.39.39a39.3 39.3 0 0 0-4.74 1.39 36.28 36.28 0 0 0-4.62 2l-2.21 1.32a18.16 18.16 0 0 0-2.15 1.47 33 33 0 0 0-7.5 7.54 34.24 34.24 0 0 0-5.07 9.77 35.19 35.19 0 0 0 0 22.4l1 2.63 1.2 2.5a10.88 10.88 0 0 0 .66 1.21l.72 1.18.71 1.16.82 1.1a39.34 39.34 0 0 0 3.48 4.11 40.4 40.4 0 0 0 4 3.42 19 19 0 0 0 2.14 1.48l2.21 1.32a37 37 0 0 0 4.63 2 39.3 39.3 0 0 0 4.74 1.39l2.39.39 1.18.18c.4 0 .79 0 1.19.08l2.35.12 2.31-.09a33.13 33.13 0 0 0 4.5-.52 35.69 35.69 0 0 0 24-16.72 34.13 34.13 0 0 0 4-9.47 24.91 24.91 0 0 0 .75-3.69l.23-1.49.07-1.25.11-1.7c.02-.4.06-.58.06-.58v.58l-.06 1.71-.05 1.25-.21 1.5a24.46 24.46 0 0 1-.7 3.71 33.75 33.75 0 0 1-3.91 9.58 35.87 35.87 0 0 1-24.17 17 32.32 32.32 0 0 1-4.55.54l-2.34.1-2.38-.12c-.4 0-.81 0-1.21-.07l-1.2-.18-2.42-.39a39.21 39.21 0 0 1-9.5-3.46l-2.24-1.33a17.83 17.83 0 0 1-2.17-1.5 39.21 39.21 0 0 1-4.09-3.46 40.48 40.48 0 0 1-3.53-4.17l-.83-1.11-.73-1.18-.72-1.19a9.77 9.77 0 0 1-.67-1.23l-1.23-2.54-1-2.67a35.71 35.71 0 0 1 0-22.72 34.6 34.6 0 0 1 5.15-9.91 41.78 41.78 0 0 1 3.53-4.17 40.57 40.57 0 0 1 4.09-3.47 19 19 0 0 1 2.17-1.49l2.24-1.33a39.21 39.21 0 0 1 9.5-3.46l2.42-.39 1.2-.18c.4-.05.81-.05 1.2-.07l2.38-.12 2.35.1a33.53 33.53 0 0 1 4.54.53 36 36 0 0 1 24.18 17 34.12 34.12 0 0 1 3.91 9.57 24.57 24.57 0 0 1 .7 3.72l.21 1.5c.05.5 0 .88.05 1.25l.06 1.71c.06.41 0 .64 0 .64z" class="B"/><path d="M384.47 212.09a8.18 8.18 0 1 0-6 0c-12.57 1.78-12 14.61-12 14.61l29.73.13s.73-12.97-11.73-14.74z" class="C"/><path d="M317.9 384.26h-4.29a1.23 1.23 0 0 1-1.23-1.23v-4.29a1.23 1.23 0 0 1 1.23-1.23h4.29a1.24 1.24 0 0 1 1.23 1.23V383a1.24 1.24 0 0 1-1.23 1.26zm-4.29-6.26a.73.73 0 0 0-.73.73V383a.73.73 0 0 0 .73.73h4.29a.73.73 0 0 0 .73-.73v-4.29a.73.73 0 0 0-.73-.73zm12.5 5.34l-.89-1.27h-1.14v1.26h-.8V379h1.77c1.14 0 1.85.58 1.85 1.54a1.39 1.39 0 0 1-.92 1.37l1 1.42zm-1.11-3.65h-.94v1.73h.94c.7 0 1.07-.32 1.07-.87s-.35-.86-1.07-.86zm5.81 2.25h-2.59a1 1 0 0 0 1.07.79 1.17 1.17 0 0 0 .89-.36l.42.47a1.76 1.76 0 1 1-1.45-2.84 1.61 1.61 0 0 1 1.67 1.71l-.01.23zm-2.6-.52h1.88a1 1 0 0 0-1.88 0zm8.87.03v1.89h-.77v-1.79c0-.59-.27-.87-.74-.87s-.86.33-.86 1v1.68h-.77v-1.79c0-.59-.28-.87-.75-.87s-.85.33-.85 1v1.68h-.78V380h.74v.42a1.36 1.36 0 0 1 1.08-.46 1.24 1.24 0 0 1 1.11.55 1.55 1.55 0 0 1 1.24-.55 1.27 1.27 0 0 1 1.35 1.49zm4.11.49h-2.59a1 1 0 0 0 1.07.79 1.21 1.21 0 0 0 .9-.36l.41.47a1.65 1.65 0 0 1-1.33.54 1.68 1.68 0 0 1-1.82-1.69 1.64 1.64 0 0 1 1.7-1.69 1.61 1.61 0 0 1 1.67 1.71 1.93 1.93 0 0 1-.01.23zm-2.6-.52h1.88a.9.9 0 0 0-.94-.8.92.92 0 0 0-.94.8zm8.87.03v1.89h-.77v-1.79c0-.59-.27-.87-.74-.87s-.86.33-.86 1v1.68h-.77v-1.79c0-.59-.27-.87-.74-.87s-.86.33-.86 1v1.68h-.78V380h.74v.42a1.36 1.36 0 0 1 1.08-.46 1.23 1.23 0 0 1 1.11.55 1.55 1.55 0 0 1 1.24-.55 1.27 1.27 0 0 1 1.35 1.49zm4.54.24a1.61 1.61 0 0 1-1.68 1.69 1.34 1.34 0 0 1-1.09-.47v.43h-.74v-4.59h.78v1.69a1.34 1.34 0 0 1 1-.44 1.6 1.6 0 0 1 1.73 1.69zm-.79 0a1 1 0 0 0-1-1 1.03 1.03 0 0 0 0 2.06 1 1 0 0 0 .96-1.06zm4.57.25h-2.59a1 1 0 0 0 1.07.79 1.21 1.21 0 0 0 .9-.36l.41.47a1.64 1.64 0 0 1-1.33.54 1.68 1.68 0 0 1-1.82-1.69 1.64 1.64 0 0 1 1.71-1.69 1.61 1.61 0 0 1 1.66 1.71 1.93 1.93 0 0 1-.01.23zm-2.59-.52h1.87a.95.95 0 0 0-1.87 0zm5.26-1.42v.74a.62.62 0 0 0-.18 0 .9.9 0 0 0-1 1v1.6h-.77V380h.73v.48a1.3 1.3 0 0 1 1.22-.48zm7.91 1.45v1.89h-.78v-1.79c0-.59-.27-.87-.74-.87s-.86.33-.86 1v1.68h-.77v-1.79c0-.59-.27-.87-.74-.87s-.86.33-.86 1v1.68h-.77V380h.73v.42a1.36 1.36 0 0 1 1.08-.46 1.24 1.24 0 0 1 1.12.55A1.53 1.53 0 0 1 365 380a1.27 1.27 0 0 1 1.36 1.45zm4.11.49h-2.59a1 1 0 0 0 1.07.79 1.17 1.17 0 0 0 .89-.36l.42.47a1.65 1.65 0 0 1-1.33.54 1.68 1.68 0 0 1-1.83-1.69 1.65 1.65 0 0 1 1.71-1.69 1.62 1.62 0 0 1 1.67 1.71l-.01.23zm-2.6-.52h1.87a.89.89 0 0 0-.93-.8.91.91 0 0 0-.94.8z" class="B"/><g class="F"><path d="M394 379.69V381h2.09v.68H394v1.66h-.8V379h3.16v.68zm2.67 2a1.76 1.76 0 1 1 1.75 1.69 1.66 1.66 0 0 1-1.75-1.69zm2.73 0a1 1 0 1 0-1 1 1 1 0 0 0 1-1zm3.43-1.69v.74h-.18a.9.9 0 0 0-.95 1v1.6h-.78V380h.74v.48a1.3 1.3 0 0 1 1.17-.48z"/><path d="M406.73 380v2.8a1.55 1.55 0 0 1-1.78 1.74 2.6 2.6 0 0 1-1.6-.47l.34-.58a2 2 0 0 0 1.22.4c.73 0 1-.34 1-1v-.18a1.44 1.44 0 0 1-1.11.44 1.6 1.6 0 1 1 0-3.19 1.43 1.43 0 0 1 1.15.48V380zm-.76 1.55a1 1 0 0 0-2 0 1 1 0 0 0 2 0zm1.5.14a1.76 1.76 0 1 1 1.76 1.69 1.67 1.67 0 0 1-1.76-1.69zm2.74 0a1 1 0 1 0-1 1 1 1 0 0 0 1-1zm3.51 1.47a1.23 1.23 0 0 1-.75.22 1 1 0 0 1-1.13-1.11v-1.59h-.55v-.62h.55v-.75h.77v.75h.88v.62h-.88v1.57c0 .32.16.5.46.5a.71.71 0 0 0 .43-.14zm6.03-2.61c0 .95-.7 1.54-1.84 1.54h-1v1.25h-.81V379h1.78c1.17 0 1.87.59 1.87 1.55zm-.81 0c0-.54-.36-.86-1.06-.86h-.94v1.72h.94c.7 0 1.06-.31 1.06-.86zm4.28.85v1.94h-.73v-.4a1.19 1.19 0 0 1-1 .44c-.76 0-1.23-.41-1.23-1s.37-1 1.37-1h.85v-.05c0-.45-.27-.71-.82-.71a1.66 1.66 0 0 0-1 .32l-.3-.56a2.31 2.31 0 0 1 1.39-.41c.92.03 1.47.48 1.47 1.43zm-.78.91v-.39h-.79c-.53 0-.67.2-.67.44s.23.46.63.46a.83.83 0 0 0 .83-.51zm1.39.69l.29-.59a2.16 2.16 0 0 0 1.15.33c.49 0 .7-.13.7-.36 0-.63-2 0-2-1.36 0-.62.56-1 1.45-1a2.57 2.57 0 0 1 1.23.29l-.29.58a1.86 1.86 0 0 0-.95-.24c-.47 0-.69.15-.69.37 0 .66 2 .07 2 1.36 0 .62-.57 1-1.5 1a2.58 2.58 0 0 1-1.39-.38zm3.17 0l.3-.59a2.13 2.13 0 0 0 1.15.33c.48 0 .69-.13.69-.36 0-.63-2 0-2-1.36 0-.62.56-1 1.45-1a2.64 2.64 0 0 1 1.24.29l-.3.58a1.86 1.86 0 0 0-.95-.24c-.46 0-.69.15-.69.37 0 .66 2 .07 2 1.36 0 .62-.57 1-1.49 1a2.64 2.64 0 0 1-1.4-.38zm8.66-3l-1.22 3.3h-.74l-.86-2.27-.86 2.27h-.74L430 380h.73l.87 2.43.91-2.43h.64l.89 2.45.96-2.45zm.16 1.69a1.76 1.76 0 1 1 1.76 1.69 1.66 1.66 0 0 1-1.76-1.69zm2.74 0a1 1 0 1 0-1 1 1 1 0 0 0 1-1zM442 380v.74h-.18a.9.9 0 0 0-1 1v1.6h-.77V380h.74v.48A1.3 1.3 0 0 1 442 380zm3.85-1.25v4.59h-.74v-.43a1.36 1.36 0 0 1-1.1.47 1.69 1.69 0 0 1 0-3.38 1.31 1.31 0 0 1 1.06.45v-1.7zm-.76 2.94a1 1 0 1 0-1 1 1 1 0 0 0 1-1zm3.67-1.49c0-.35-.3-.58-.77-.58a1.15 1.15 0 0 0-1 .48l-.6-.39a2 2 0 0 1 1.67-.76c.91 0 1.52.42 1.52 1.13 0 1-1.06 1.1-1.06 1.83h-.78c-.01-.91 1.02-1.09 1.02-1.71zm-1.13 2.7a.5.5 0 0 1 1 0 .5.5 0 0 1-1 0z"/></g><path d="M315.43 382.3a.36.36 0 0 1-.24-.09l-1-.8a.37.37 0 0 1 0-.52.37.37 0 0 1 .53-.06l.7.58 1.67-1.81a.37.37 0 0 1 .53 0 .38.38 0 0 1 0 .53l-1.91 2.08a.36.36 0 0 1-.28.09z" class="B"/><path d="M438.09 287.42a2.9 2.9 0 0 0 1.71-2.66 2.7 2.7 0 1 0-5.39 0 2.86 2.86 0 0 0 1.72 2.68c-4.15.62-4 5.13-4 5.13l9.8.05s.27-4.62-3.84-5.2z" class="C"/><path d="M363.19 256.21h2.3v6.31h3.88v1.82h-6.18zm6.56 4.97a3.57 3.57 0 1 1 3.55 3.27 3.29 3.29 0 0 1-3.55-3.27zm4.88 0a1.33 1.33 0 1 0-2.65 0 1.34 1.34 0 1 0 2.65 0zm10.02-3.13v5.14c0 2.38-1.35 3.51-3.69 3.51a5.6 5.6 0 0 1-3.13-.82l.8-1.55a3.67 3.67 0 0 0 2.13.67c1.18 0 1.68-.53 1.68-1.52v-.21a2.35 2.35 0 0 1-1.87.75 3.04 3.04 0 1 1 0-6.08 2.28 2.28 0 0 1 2 .88v-.77zm-2.18 2.95a1.38 1.38 0 0 0-2.76 0 1.38 1.38 0 0 0 2.76 0zm7.08-4.79h2.3v8.13h-2.3zm10.53 4.53v3.6h-2.21v-3.24c0-.9-.39-1.29-1-1.29s-1.25.45-1.25 1.49v3h-2.21v-6.29h2.1v.68a2.72 2.72 0 0 1 2-.79 2.47 2.47 0 0 1 2.57 2.84zm172.07-94.66h-16.53a1.18 1.18 0 0 1-1.18-1.18v-8.22a1.18 1.18 0 0 1 1.17-1.18h16.54a.29.29 0 0 1 .21.09.27.27 0 0 1 .09.21v2.71h1.77a.3.3 0 0 1 .3.3v4a.3.3 0 0 1-.3.3h-1.77v2.71a.3.3 0 0 1-.3.26zm-.31-10h-16.23a.57.57 0 0 0-.57.58v8.22a.58.58 0 0 0 .58.58h16.22v-2.71a.3.3 0 0 1 .31-.3h1.76v-3.36h-1.76a.3.3 0 0 1-.31-.3zm-15.45 7.04v-4.66a1 1 0 0 1 1-1h7.77a1 1 0 0 1 1 1v4.66a1 1 0 0 1-1 1h-7.76a1 1 0 0 1-1.01-1z" class="B"/><path d="M484.3 412.2h86.22v7.38H484.3z" class="F"/><g class="D"><use href="#C"/><use href="#C" x="-3.09"/><use href="#C" x="-71.76"/><use href="#C" x="-74.85"/><path d="M553 417.92h.29a1.36 1.36 0 0 0 .71-.41 1.34 1.34 0 0 0 .31-.52 1.64 1.64 0 0 0 0-.74 1.31 1.31 0 0 0-.38-.76 1.42 1.42 0 0 0-.87-.4h-11.87-39.38a1.34 1.34 0 0 0-1.33 1.29 1.57 1.57 0 0 0 .1.68 1.35 1.35 0 0 0 1 .79 5.4 5.4 0 0 0 .7 0h34.42 11.94 0-11.94L519 418h-16.69a4.36 4.36 0 0 1-.72 0 1.44 1.44 0 0 1-1.12-.86 1.68 1.68 0 0 1-.12-.73 1.47 1.47 0 0 1 1.46-1.42h39.38 11.94a1.49 1.49 0 0 1 .9.42 1.43 1.43 0 0 1 .38.79 1.68 1.68 0 0 1-.06.75 1.32 1.32 0 0 1-.32.53 1.34 1.34 0 0 1-.73.4h-.22z"/></g><path d="M488.52 419.5h80.05v10.57h-80.05z" class="E"/><path d="M488.52 420.8h80.05v7.5h-80.05z" class="H"/><g class="B"><use href="#D"/><use href="#D" y="2.25"/><use href="#D" y="4.49"/><path d="M567.88 427.73l-39.4.06c-21.75 0-39.4 0-39.4-.06s17.64-.06 39.4-.06l39.4.06z"/></g><path d="M503.3 411.3h-10.97v-20.79h10.97z" class="J"/><g class="B"><path d="M562.18 412.32H503.3v-22.55h58.88z"/><use href="#E"/><use href="#E" y="-21.08"/></g><g class="C"><use href="#F"/><path d="M492.32 396l5.49.07 5.49-.07c0-.07-2.46-.06-5.49-.06s-5.49-.01-5.49.06z"/><use href="#G"/><use href="#G" y="2.67"/><use href="#F" y="10.7"/><use href="#G" y="8"/><use href="#G" y="10.67"/></g><path d="M511.77 399.14h43.09v3.81h-43.09z" class="D"/><use href="#H" class="E"/><g opacity=".3"><use href="#H"/></g><path d="M669.76 382.38s-29.68-35.53-29.34-69.44h12s-13-8.56-12-13.36 1.37-22.95 1.37-22.95l11 2.74s-8.22-4.11-9.25-10.62 2.4-36.65 2.4-36.65 13.36 14.05 17.47 28.43 14.9 31.17 11.73 75-5.38 46.85-5.38 46.85zm15.04 3.35S717 364.31 724.1 337l-9.64-2.62s12.34-4 12.57-8.12 3.91-18.75 3.91-18.75l-9.41-.2s7.51-1.5 9.76-6.51 6.09-30 6.09-30-13.81 8.37-20.26 19-18.8 21.8-25.85 57.74-6.47 38.19-6.47 38.19z" class="E"/><path d="M654 263.07a2.63 2.63 0 0 1 .1.37l.26 1.1.94 4.21 1.4 6.69 1.75 8.88c1.27 6.59 2.61 14.47 4 23.23s2.67 18.42 3.86 28.59 2.06 19.88 2.76 28.72 1.15 16.82 1.42 23.53l.33 9 .15 6.83v4.32 1.12a1.65 1.65 0 0 1 0 .39 1.88 1.88 0 0 1 0-.38c0-.28 0-.65-.05-1.13 0-1-.09-2.46-.15-4.31l-.25-6.83-.4-9c-.32-6.69-.85-14.66-1.53-23.5s-1.64-18.54-2.8-28.7-2.51-19.82-3.82-28.58-2.65-16.64-3.88-23.23l-1.66-8.89-1.32-6.71-.84-4.23-.21-1.11a2 2 0 0 1-.06-.38z" class="B"/><path d="M665.64 404.13s-27.16-30.82-35.59-49.44l6.36-2.72c-4.61.76-9.34-1.23-12.92-4.24s-6.2-7-8.78-10.88l8.39-1.41a31.19 31.19 0 0 1-18.33-14.2c9.9 1.63 18.85 7.07 26.23 13.86 6 5.5 11 11.89 15.89 18.42a62.86 62.86 0 0 1 6.18 10.14c4.56 9.44 12.58 29.15 12.57 40.47z" class="E"/><path d="M724.53 288.72a1.91 1.91 0 0 1-.13.31l-.42.89-1.65 3.42-6 12.6-8.49 18.89c-3.1 7.15-6.34 15.09-9.59 23.47s-6.15 16.46-8.7 23.83-4.69 14.05-6.43 19.68l-4 13.37-1.07 3.65-.29.94a1.72 1.72 0 0 1-.12.32 1.34 1.34 0 0 1 .06-.33 20.46 20.46 0 0 0 .25-1l1-3.67c.85-3.19 2.16-7.78 3.86-13.42s3.83-12.35 6.33-19.74 5.42-15.45 8.66-23.86 6.54-16.31 9.64-23.47 6-13.54 8.59-18.86l6.17-12.53 1.75-3.37.46-.87c.11-.22.11-.26.12-.25zm-56.59 128.62a3.2 3.2 0 0 1-.12-.57l-.27-1.64-.42-2.58-.63-3.41-2.07-8.78c-.89-3.28-2-6.83-3.42-10.5s-2.9-7.08-4.37-10.14-2.95-5.74-4.25-8c-.63-1.12-1.25-2.1-1.78-3s-1-1.62-1.39-2.22l-.89-1.4a4.05 4.05 0 0 1-.28-.51 4.44 4.44 0 0 0 .37.45c.23.31.57.8 1 1.34s.92 1.32 1.47 2.18 1.2 1.83 1.85 2.94c1.34 2.2 2.83 4.89 4.36 7.94s3 6.49 4.43 10.17 2.5 7.26 3.39 10.55 1.53 6.3 2 8.84c.25 1.26.4 2.42.56 3.43s.26 1.89.34 2.61l.16 1.65a2.33 2.33 0 0 1-.04.65z" class="B"/><g class="F"><path d="M644.34 410.09h59.44v12.13h-59.44z"/><path d="M650 422.21l6.43 36.87h35.92l5.99-36.87H650z"/></g><path d="M700.13 422.21c0 .15-11.24.26-25.11.26s-25.11-.11-25.11-.26S661.15 422 675 422l25.13.21z" class="B"/><path d="M50.72 423.56l5.4 35.49H87.5l7.28-34.98-44.06-.51z" class="F"/><path d="M90.4 446.31c0 .1-8 .18-18 .18s-18-.08-18-.18 8-.19 18-.19l18 .19zm.12-1.75c0 .1-8.1.18-18.08.18s-18.08-.08-18.08-.18 8.09-.18 18.08-.18l18.08.18zm-.06-1.97c0 .1-8.1.18-18.08.18s-18.09-.08-18.09-.18 8.1-.19 18.09-.19l18.08.19zM59.72 457a57.24 57.24 0 0 1-1.56-9 28.3 28.3 0 0 1 1 4.47 27.28 27.28 0 0 1 .56 4.53zm2.14-.35a32.2 32.2 0 0 1-.39-4.36 33.11 33.11 0 0 1-.2-4.37 22.4 22.4 0 0 1 .57 4.35 21.37 21.37 0 0 1 .02 4.38zm3.89 0a21.53 21.53 0 0 1-.82-4.47 23.11 23.11 0 0 1-.24-4.54 36.25 36.25 0 0 1 .61 4.5 39.59 39.59 0 0 1 .45 4.51zm2.73.19a22.46 22.46 0 0 1-.43-4.55 21.6 21.6 0 0 1 .14-4.56 40.69 40.69 0 0 1 .22 4.55 38 38 0 0 1 .07 4.56zm4.84-.19a24.51 24.51 0 0 1-.33-4.31A26.46 26.46 0 0 1 73 448a24.56 24.56 0 0 1 .33 4.32 25 25 0 0 1-.01 4.33zm3.53.19a53.86 53.86 0 0 1 .07-8.92 53.86 53.86 0 0 1-.07 8.92zm3.31-.48a30 30 0 0 1 .27-4.66 30.32 30.32 0 0 1 .63-4.62 30 30 0 0 1-.27 4.66 30.32 30.32 0 0 1-.63 4.62zm4.27-.46a15.38 15.38 0 0 1 .53-4 16.21 16.21 0 0 1 1.16-3.82 35.29 35.29 0 0 1-.8 3.9 36.46 36.46 0 0 1-.89 3.92z" class="J"/><g class="E"><path d="M81.41 353.51v.18l-.15.5-.59 1.91-.93 3-1.13 4.05-1.22 4.94-1.21 5.72c-.75 4-1.44 8.52-1.92 13.24s-.67 9.26-.74 13.37l.06 5.85.22 5.08c.09 1.55.22 3 .31 4.19s.2 2.3.3 3.16l.21 2v.52.18-.18c0-.12 0-.3-.08-.51l-.28-2a61.84 61.84 0 0 1-.36-3.16c-.11-1.24-.28-2.63-.37-4.19l-.27-5.09-.09-5.86c0-4.13.25-8.66.71-13.4s1.18-9.22 2-13.28c.41-2 .79-3.94 1.24-5.72l1.27-4.94c.41-1.5.83-2.85 1.19-4s.69-2.2 1-3l.66-1.9c.08-.19.13-.36.18-.49s-.02-.17-.01-.17z"/><path d="M75.74 375.49a11.68 11.68 0 0 1 4.88-6.16 2.82 2.82 0 0 1 2.58-.48c1.1.53 1.19 2.07.86 3.25a8.62 8.62 0 0 1-3.55 4.84 7.26 7.26 0 0 1-5.33 1.34m-1.34 12.05c.81-3.06 3.25-7.42 5.79-9.31a3.58 3.58 0 0 1 1.32-.7 1.5 1.5 0 0 1 1.4.3 2.16 2.16 0 0 1 .32 2 12.35 12.35 0 0 1-9.16 9.22m-.2 11.56a18 18 0 0 1 5.84-7.35 2.8 2.8 0 0 1 2-.73c1.11.2 1.62 1.56 1.52 2.68-.2 2.31-2 4.16-3.79 5.6a23.32 23.32 0 0 1-5.41 2.78m.14 6.41a17.13 17.13 0 0 1 5-5.66 3.53 3.53 0 0 1 1.49-.67 1.52 1.52 0 0 1 1.46.56c.5.73 0 1.72-.51 2.43a14.17 14.17 0 0 1-7.09 5.2m-.6-5.65a55.36 55.36 0 0 0-7.11-7.25c-.4-.34-.91-.7-1.42-.53a1 1 0 0 0-.65.95 2.62 2.62 0 0 0 .27 1.19 13.81 13.81 0 0 0 9.16 7.7"/><path d="M73.59 396.75L68 389.94a6.88 6.88 0 0 0-1.81-1.72 2.27 2.27 0 0 0-2.38 0 2.24 2.24 0 0 0-.77 2.24 5.85 5.85 0 0 0 1.09 2.24 16.63 16.63 0 0 0 4.07 4.3c1.64 1.12 3.13 1.86 5.1 1.57M74.36 383a19.41 19.41 0 0 0-5.62-8.44 3.33 3.33 0 0 0-1.46-.85 2.46 2.46 0 0 0-2.56 1.8 4.6 4.6 0 0 0 .51 3.7 9.59 9.59 0 0 0 2.62 2.79 22.3 22.3 0 0 0 6.22 3.36m2.53-14.64c-.55-3.94-2.6-7.23-5-10.42-.5-.68-1.2-1.39-2-1.26a1.6 1.6 0 0 0-1.17 1 3.63 3.63 0 0 0-.22 1.57 12.18 12.18 0 0 0 7.91 10.9m2.04-8.05a32.77 32.77 0 0 1-.21-6.1 11 11 0 0 1 2-5.69 4.78 4.78 0 0 1 2-1.62 2.57 2.57 0 0 1 2.49.33 2.72 2.72 0 0 1 .85 2.19 6.9 6.9 0 0 1-.63 2.34c-1.49 3.58-4 7.55-6.56 8.55"/></g><g class="B"><path d="M53.82 369.16a1.66 1.66 0 0 1 0 .5v1.44 2.26l.1 3 .65 7.78c.33 2.92.86 6.11 1.55 9.43l2.37 9.25 2.53 7.38 1.11 2.79.88 2.09.56 1.32a3.14 3.14 0 0 1 .17.47 3.06 3.06 0 0 1-.24-.44l-.5-1.29-.94-2.07-1.16-2.77-2.61-7.38-2.41-9.28c-.71-3.33-1.18-6.54-1.52-9.46l-.58-7.81v-3-2.27l.05-1.44a4.16 4.16 0 0 1-.01-.5z"/><path d="M54.7 385.35a8.36 8.36 0 0 1 2-5.25 2 2 0 0 1 1.66-.88c.86.13 1.25 1.16 1.28 2a6.12 6.12 0 0 1-1.38 4.06 5.15 5.15 0 0 1-3.33 2.06m1.67 8.52a14 14 0 0 1 1.93-7.59 2.71 2.71 0 0 1 .75-.76 1.11 1.11 0 0 1 1-.09 1.53 1.53 0 0 1 .65 1.31 8.83 8.83 0 0 1-4.22 8.27m2.34 7.87a12.71 12.71 0 0 1 2.4-6.26 1.93 1.93 0 0 1 1.23-.93c.8-.11 1.43.71 1.61 1.49.36 1.62-.45 3.26-1.38 4.63a16.62 16.62 0 0 1-3.08 3.06m1.44 4.34a12.4 12.4 0 0 1 2.17-4.92 2.59 2.59 0 0 1 .87-.78 1.07 1.07 0 0 1 1.12.07c.49.39.38 1.16.17 1.76a10.11 10.11 0 0 1-3.71 5.07m-1.61-3.74a38.44 38.44 0 0 0-6.4-3.4 1.13 1.13 0 0 0-1.08-.06.76.76 0 0 0-.23.79 2 2 0 0 0 .44.75A9.82 9.82 0 0 0 60.9 410m-3.09-9.71l-5.27-3.44a4.91 4.91 0 0 0-1.61-.78 1.62 1.62 0 0 0-1.62.5 1.58 1.58 0 0 0 0 1.69 4.17 4.17 0 0 0 1.22 1.29 12 12 0 0 0 3.71 2.07 4.89 4.89 0 0 0 3.81 0m-2.67-10.87a13.89 13.89 0 0 0-5.65-4.53 2.23 2.23 0 0 0-1.18-.27 1.76 1.76 0 0 0-1.36 1.78 3.28 3.28 0 0 0 1.15 2.4 6.89 6.89 0 0 0 2.38 1.33 16.45 16.45 0 0 0 5 1m-1.47-10.54a16.19 16.19 0 0 0-5.63-6c-.49-.35-1.12-.69-1.65-.42a1.12 1.12 0 0 0-.58.93 2.55 2.55 0 0 0 .19 1.12 8.71 8.71 0 0 0 7.73 5.72m-.31-5.95a23.16 23.16 0 0 1-1.45-4.12 7.76 7.76 0 0 1 .15-4.3 3.36 3.36 0 0 1 1-1.54 1.82 1.82 0 0 1 1.76-.31 1.91 1.91 0 0 1 1.05 1.31 4.78 4.78 0 0 1 .08 1.73c-.25 2.75-1.08 6-2.63 7.23"/></g><g class="E"><path d="M93.5 368.82a2.42 2.42 0 0 1 0 .5l.06 1.43c.06.59 0 1.39 0 2.27l-.06 3-.57 7.8c-.32 2.93-.83 6.14-1.52 9.47s-1.55 6.46-2.41 9.28l-2.61 7.38-1.16 2.77-.94 2.07-.62 1.29a4 4 0 0 1-.24.44 1.51 1.51 0 0 1 .17-.47l.56-1.32.88-2.09 1.1-2.79 2.53-7.38 2.38-9.26 1.54-9.43.65-7.77.11-3v-2.27-1.43a3.21 3.21 0 0 1 .15-.49z"/><path d="M92.63 385a8.27 8.27 0 0 0-2-5.24 2 2 0 0 0-1.65-.88c-.86.12-1.26 1.15-1.29 2a6.12 6.12 0 0 0 1.38 4.12 5.16 5.16 0 0 0 3.34 2m-1.68 8.52a14 14 0 0 0-1.94-7.59 2.59 2.59 0 0 0-.75-.76 1.07 1.07 0 0 0-1-.1 1.56 1.56 0 0 0-.65 1.32 8.85 8.85 0 0 0 4.25 8.25m-2.36 7.89a12.91 12.91 0 0 0-2.4-6.26 2 2 0 0 0-1.23-.94c-.8-.1-1.44.71-1.61 1.5-.36 1.62.44 3.26 1.37 4.63a17 17 0 0 0 3.09 3.05m-1.45 4.35a12.42 12.42 0 0 0-2.16-4.93 2.6 2.6 0 0 0-.88-.77 1.08 1.08 0 0 0-1.11.06c-.5.39-.39 1.17-.18 1.76a10.11 10.11 0 0 0 3.71 5.07m1.57-3.74a40.41 40.41 0 0 1 6.4-3.4 1.16 1.16 0 0 1 1.08-.06.75.75 0 0 1 .24.79 1.84 1.84 0 0 1-.44.75 9.84 9.84 0 0 1-7.89 3.28m3.13-9.73l5.27-3.43a4.67 4.67 0 0 1 1.6-.78 1.45 1.45 0 0 1 1.67 2.19 4.32 4.32 0 0 1-1.23 1.29 11.62 11.62 0 0 1-3.7 2.06 4.85 4.85 0 0 1-3.81 0M92 390.41a14 14 0 0 1 5.64-4.54 2.38 2.38 0 0 1 1.19-.26 1.75 1.75 0 0 1 1.35 1.77 3.29 3.29 0 0 1-1.18 2.41 7.2 7.2 0 0 1-2.39 1.33 16 16 0 0 1-4.95.94m1.41-10.49a16.32 16.32 0 0 1 5.63-6 1.74 1.74 0 0 1 1.66-.43 1.18 1.18 0 0 1 .58.94 2.7 2.7 0 0 1-.19 1.12 8.7 8.7 0 0 1-7.75 5.69m.36-5.89a23.35 23.35 0 0 0 1.45-4.11 7.79 7.79 0 0 0-.16-4.31 3.29 3.29 0 0 0-1-1.53 1.82 1.82 0 0 0-1.77-.31 2 2 0 0 0-1 1.3 5 5 0 0 0-.07 1.73c.24 2.76 1.08 6 2.63 7.23"/></g><path d="M47.12,416.53v6.64a2.61,2.61,0,0,0,2.61,2.61H95.18a2.61,2.61,0,0,0,2.61-2.61v-6.64Z" class="F"/><g opacity=".4"><path d="M51.06 425.78l.37 2.12 41.94 2.99 1.06-5.11H51.06z"/></g><g class="B"><path d="M164.71 224.65l-6.7-2c-8.11-2.83-14.82-.65-19.21 4.83s-6.09 12.75-5.84 19.77c.16 4.52 1 9.28-.79 13.42a23.91 23.91 0 0 1-4.45 6.07 17.79 17.79 0 0 0-4.1 6.29c-.75 2.41-.38 5.33 1.54 7a14.59 14.59 0 0 1 2.49 2c.9 1.16.82 2.78.91 4.25a15.5 15.5 0 0 0 29.73 5.19c2-4.59 1.6-9.78 1.4-14.76a192.65 192.65 0 0 1 5.02-52.06z"/><path d="M179.25,216.48c-5.8-1.72-11.27-.06-16.66,2.67A29.86,29.86,0,0,0,150,231.81a29.51,29.51,0,0,0-3.32,18.47A23.64,23.64,0,0,0,156.51,266c7.23,4.83,17.23,4.65,24.74.27s12.48-12.52,13.85-21.1a28.79,28.79,0,0,0-2.49-17.5,21.87,21.87,0,0,0-13.36-11.22"/><path d="M160 234.58c1.13-2.16 1.1-4.73 1.73-7.09 1.39-5.19 6.15-8.91 11.32-10.38 4.81-1.37 10.35-.28 15.66 2.16a21.28 21.28 0 0 1 9.09 7.61 16.69 16.69 0 0 1 1.26 15.27L172.52 235c-2.78 1.79-5.63 3.61-8.84 4.41a5.6 5.6 0 0 1-2.87.11 2.52 2.52 0 0 1-1.9-2c-.12-1.07.6-2 1.09-2.94z"/></g><path d="M188.4 226.8l-24.19 2.2a4.41 4.41 0 0 0-4.63 3.82l-5.84 51.1a16 16 0 0 0 2.17 10l1.9 3.17c4.34 7.23 14.82 7.81 19.62.88a5.55 5.55 0 0 0 .7-1.27 8.07 8.07 0 0 0 .36-1.13l1-4.92c.78-4.52 1.36-9.14 1.36-9.1s9.8-.06 13.77-12.21c2-6 3.28-16.25 4.08-24.63.77-7.55-2.7-17.51-10.3-17.91z" class="I"/><path d="M194.18 254.83a1.61 1.61 0 0 1-1.8 1.36 1.54 1.54 0 0 1-1.42-1.7 1.62 1.62 0 0 1 1.8-1.37 1.57 1.57 0 0 1 1.42 1.71zm1.52-5.18c-.23.18-1.3-.91-3-1.18s-3.12.39-3.27.15.18-.45.8-.77a4.42 4.42 0 0 1 2.66-.37 4.18 4.18 0 0 1 2.36 1.2c.44.49.56.89.45.97zM178.84 253a1.62 1.62 0 0 1-1.8 1.37 1.54 1.54 0 0 1-1.41-1.7 1.62 1.62 0 0 1 1.79-1.37 1.54 1.54 0 0 1 1.42 1.7zm.5-5.74c-.23.18-1.3-.91-3-1.18s-3.11.39-3.27.15.19-.45.8-.76a4.36 4.36 0 0 1 2.66-.38 4.18 4.18 0 0 1 2.36 1.2c.45.49.57.89.45.97zM183 261a12.16 12.16 0 0 1 2.88 0c.44 0 .87 0 1-.29a2.22 2.22 0 0 0-.08-1.35l-.77-3.55-1.52-9.21c.2-.04 1.22 4 2.26 9.07l.71 3.56a2.55 2.55 0 0 1 0 1.76 1.11 1.11 0 0 1-.82.53 3.18 3.18 0 0 1-.77 0A11 11 0 0 1 183 261z" class="B"/><path d="M180.9 281.56a32 32 0 0 1-16-7.11s2.82 9.3 15.48 10.12zm.66-16.51a3.12 3.12 0 0 0-2.59-1.59 2.84 2.84 0 0 0-2.12.74 1.8 1.8 0 0 0-.46 2 2.08 2.08 0 0 0 2.16.93 6.59 6.59 0 0 0 2.41-1 1.86 1.86 0 0 0 .57-.43.57.57 0 0 0 .1-.64" class="K"/><path d="M177.7 261.41c.28 0 0 1.89 1.38 3.47s3.4 1.69 3.38 2-.5.29-1.35.18a4.74 4.74 0 0 1-2.84-1.53 4.11 4.11 0 0 1-1-2.89c.02-.83.31-1.26.43-1.23zm3.04-20.22c-.25.44-1.93-.06-4-.13s-3.77.21-4-.25c-.09-.22.26-.62 1-1a6.75 6.75 0 0 1 3.07-.55 6.59 6.59 0 0 1 3 .85c.72.44 1.03.89.93 1.08zm16.45.94c-.36.34-1.48-.26-2.9-.5s-2.68-.16-2.89-.61c-.09-.22.16-.58.75-.87a4.25 4.25 0 0 1 4.66.9c.44.48.55.95.38 1.08zm-41.07-11.71c3.31-6.89 15.16-15.41 22.64-13.82l11.05 8.92a11.77 11.77 0 0 1-9.15 7.8c-2.22.35-4.81.17-6.34 1.83s-1.18 4.52-2.66 6.28c-2 2.45-6.59 1.68-8.25 4.4-.72 1.19-.65 2.74-1.39 3.91-1 1.57-5.53 3.1-7.2 2.3s-1.26-3.79-1.61-5.43a8.33 8.33 0 0 1 .52-5.58c1.27-3.42.81-7.32 2.39-10.61z" class="B"/><path d="M159.78 254.24c.14-.93.33-2.26-.51-2.68-2.51-1.26-7.79-2.18-8.82 4-1.41 8.49 7.4 8.15 7.45 7.91s1.38-6.03 1.88-9.23z" class="I"/><path d="M155.84 259.85s-.16.08-.43.16a1.56 1.56 0 0 1-1.11-.16c-.84-.48-1.36-2-1.15-3.57a5.15 5.15 0 0 1 .77-2 1.77 1.77 0 0 1 1.3-.95.78.78 0 0 1 .81.55c.07.26 0 .42 0 .44s.21-.11.2-.47a1 1 0 0 0-.25-.59 1.14 1.14 0 0 0-.78-.35 2.11 2.11 0 0 0-1.76 1.06 5.06 5.06 0 0 0-.91 2.28c-.23 1.72.38 3.46 1.55 4a1.58 1.58 0 0 0 1.39 0c.33-.19.4-.38.37-.4z" class="K"/><path d="M187.64 222.65c.37 3.56 5.11 8.65 7.11 11.63 3.8 5.7 4.47 7.51 3 19.05 2.57-3.74 4.63-7.45 5-12a18.77 18.77 0 0 0-3.47-12.82 14.58 14.58 0 0 0-11.69-5.89m-34.41 5.6c4.85-7 11-10.71 16.55-11.85" class="B"/><path d="M151.3 261.09a2.25 2.25 0 0 1-.35-.39 12.1 12.1 0 0 1-.9-1.25 18.61 18.61 0 0 1-2.25-5.17 34.2 34.2 0 0 1-1.06-8.3 24.82 24.82 0 0 1 1.8-10.06 35.44 35.44 0 0 1 5-9 32.59 32.59 0 0 1 5.87-6 24 24 0 0 1 4.85-2.88l1.43-.56a1.85 1.85 0 0 1 .51-.14l-1.85.89a26.07 26.07 0 0 0-4.71 3 33.55 33.55 0 0 0-5.72 6 35.63 35.63 0 0 0-4.92 8.87 24.7 24.7 0 0 0-1.81 9.87 35.43 35.43 0 0 0 .94 8.22 20 20 0 0 0 2.06 5.16l1.11 1.74z" class="E"/><g class="B"><path d="M194.21 370.06l56.79-6.88c15.26-2.59 30.52-.12 37 13 2.95 6-.79 17.49-9.73 26-6.68 6.38-39.81 39.89-39.81 39.89l-28.39-23.71 35.14-27.33-68.12 9.57z"/><path d="M244.83,425.74,226.56,445s13.81,25.34,10.79,29.24L198,439.61l27.21-31.24Z"/></g><path d="M215.87,432.63a2.1,2.1,0,0,0-2.7.82,2.06,2.06,0,0,0,.84,2.69,2.21,2.21,0,0,0,2.85-.89,2.13,2.13,0,0,0-1.18-2.7" class="C"/><path d="M198,439.61l2.75-3.16,36.91,34.62a4.33,4.33,0,0,1-.3,3.21Z" class="E"/><path d="M227.38 445.39c-.18.18-1.21-.58-2.69-.8s-2.69.12-2.8-.11 1.14-1.07 2.93-.76 2.75 1.53 2.56 1.67zm2.62 5.32c-.12.22-1.24-.2-2.59 0s-2.29.9-2.48.72.64-1.35 2.33-1.59 2.92.68 2.74.87zm-1.9 6.92c-.21-.12.35-1.3 1.75-1.9s2.67-.22 2.61 0-1.1.3-2.24.81-1.92 1.24-2.12 1.09zm2.9-17.1c-.23.1-.88-.94-2-1.83s-2.3-1.29-2.25-1.54 1.45-.21 2.79.85 1.73 2.45 1.46 2.52z" class="D"/><path d="M258 422.38a2.47 2.47 0 0 1-.36.43l-1.07 1.19-4.07 4.22-13.86 14.1-.17.17-.18-.15-3.54-3-17.53-14.73-5.22-4.51-1.42-1.25a3.57 3.57 0 0 1-.47-.46 3.29 3.29 0 0 1 .54.38l1.48 1.17 5.38 4.39 17.62 14.61 3.54 3h-.35l14-14 4.18-4.1 1.15-1.09a2.25 2.25 0 0 1 .35-.37z" class="E"/><path d="M299.55,420.83l24,21.14,23.78,11.27a3.27,3.27,0,0,1,1.46,4.55h0a3.26,3.26,0,0,1-2.5,1.66c-6.72.72-31.46,3.23-33.13,1.58-1.93-1.9-26.76-20.63-26.76-20.63Z" class="B"/><path d="M348.76,457.79l-37.28,1.85,1.65,1.39a3.3,3.3,0,0,0,2.59.65c3.13,0,11.78-.25,30.48-2.15a3.3,3.3,0,0,0,2.56-1.74Z" class="E"/><g opacity=".6" class="D"><path d="M311.47,450.52a2,2,0,0,1,2.33,1.26,1.9,1.9,0,0,1-1.22,2.31,2.08,2.08,0,0,1-2.46-1.33,2,2,0,0,1,1.54-2.28"/></g><path d="M333.37 454.38c.18-.08-.63-1.71-.1-3.74s2-3.11 1.84-3.27-.5.08-1.06.58a5.21 5.21 0 0 0-1.34 5.43c.29.71.59 1.05.66 1zm4.74 1.02c.2 0 .07-1.48.77-3s1.83-2.48 1.71-2.65-1.58.57-2.35 2.37-.3 3.35-.13 3.28zm-11.67-1.31c.22 0 0-2.25.88-4.79s2.37-4.19 2.21-4.34-2 1.38-2.88 4.12-.37 5.07-.21 5.01zm-7.82-5.82c.2.06.77-1.77 2.19-3.58s3-2.85 2.91-3-2 .64-3.46 2.6-1.82 3.96-1.64 3.98zm-5.35-3.75c.21 0 .54-2 2.19-3.79s3.61-2.35 3.54-2.55-.55-.08-1.35.21a7.17 7.17 0 0 0-4.3 4.76c-.21.85-.16 1.36-.08 1.37z" class="D"/><path d="M116.33 391.76c.49 1.22-1.67 40.45 35.56 40.69 33.42.22 78.37-30.41 83.5-28.45 3.35 1.29 61 51.4 61 51.4l20.86-24.4-58.63-54.65c-11.24-7.86-19.14-7.8-37.63-4.45-16.55 3-57.08 16.45-57.08 16.45L160 385z" class="B"/><path d="M209 375.85s.21-.1.63-.26l1.86-.7 7.3-2.33a91 91 0 0 1 11.87-2.51 48.89 48.89 0 0 1 7.58-.52 38.65 38.65 0 0 1 8.45 1.07 40.87 40.87 0 0 1 17.27 8.92l16.25 15.51 37.24 35.74.17.17-.16.19-2.87 3.37c-3.08 3.63-6.28 7.32-9.45 10.72s-6 6.82-8.94 10.2l.08.18-32.69-28.27-14-12.13-6.3-5.45c-1-.88-2-1.73-3-2.56-.48-.42-.95-.85-1.44-1.21a8.36 8.36 0 0 0-1.56-.89 8 8 0 0 0-6.59.11l-5.51 2.7-8.79 4.31-5.52 2.69-1.43.68-.5.22s.16-.1.47-.26l1.42-.73 5.48-2.76 8.75-4.38 5.5-2.74a8.31 8.31 0 0 1 8.48.78c.52.38 1 .8 1.47 1.21l3 2.55 6.32 5.43 14 12.09 32.74 28.22.09.17 8.75-10.57c2.88-3.63 5.71-7.09 8.78-10.69l2.83-3.33v.36l-37.21-35.78-16.2-15.53a40.69 40.69 0 0 0-17.03-8.84 39.3 39.3 0 0 0-8.38-1.1 48.62 48.62 0 0 0-7.53.49 91.89 91.89 0 0 0-11.86 2.41 118.39 118.39 0 0 0-7.31 2.24l-1.88.65c-.43.1-.63.16-.63.16z" class="E"/><path d="M188.57 288.78s12.35 4.9 13.81 15.34c1.22 8.7-1.49 31.88-1.45 33.45a5.49 5.49 0 0 0 1.31 3.75 8.71 8.71 0 0 1 2.33 6 9.39 9.39 0 0 1-.76 4.34c-1.41 2.38-15.07 18.2-15.07 18.2l-12.14-25.27 8-24.27c0-.61 3.97-31.54 3.97-31.54z" class="F"/><path d="M202.55 350.59c.52.07 18.33 12.72 18.33 12.72s4.35-8.4 6.3-8.65 7.95 2.06 8.48 2.69 1.7.74 2.88.85 3.26 3.06 3.26 3.06l4 3s-1.26 2.34-1.59 2.74-3-.72-3-1.15.34 2.63-1.74 2.72a11.66 11.66 0 0 1-4.76-1.32l-.7-3.53-5.16-3.36-.62 3.39s5.23 1.07 5.06 2.79a2.63 2.63 0 0 1-1.69 2.22l-4.32-.09-9.51 2.28s-24.94-5.52-25.85-8.35 3.32-13 10.63-12.01z" class="I"/><path d="M202.73,344.68a17.42,17.42,0,0,1,4.93,6.85c1.1,2.53,13,11.23,13,11.23L211,370.57s-20.12.83-21.06-2.16,2.2-16.33,2.2-16.33Z" class="F"/><g class="C"><path d="M190.19 378.63h0a1.71 1.71 0 0 0 2 1.22l35-7.65 30.06-5.47.25-2.67-28.72 4.12-37.31 8.34a1.71 1.71 0 0 0-1.28 2.11z"/><path d="M244.84 327.05l-16.17 41.4a2.29 2.29 0 0 0 2.5 3.09l35.7-6.59a2.27 2.27 0 0 0 1.75-1.43l16.22-41.07a1.22 1.22 0 0 0-1.23-1.66l-36.83 4.82a2.28 2.28 0 0 0-1.94 1.44z"/></g><path d="M248.49 325.61c.14.06-3.74 10.36-8.65 23l-9.14 22.84c-.14-.05 3.74-10.36 8.66-23l9.13-22.84z" class="B"/><path d="M257.43 345.19c-1 2-.94 4.06.15 4.61s2.78-.63 3.78-2.63.95-4.06-.14-4.6-2.78.62-3.79 2.62z" class="D"/><path d="M190.78,372.19s-2.92-12.27-2.33-14.52c1.68-6.47,10.33-22.8,9.61-32.58s-9.49-36.31-9.49-36.31l-8.36-2.91c-3.38,7.37-16.5,5.72-27.21-2.91l-13.42,2.72-21,65.38L115,374.88c-8.52,11.11,1.3,17,1.3,17s16.18,5.1,29,2.81c9.57-1.7,23.53-8.46,26.66-10.91,7.49-5.87,19.37-5.46,19.37-5.46Z" class="F"/><path d="M167.3 372.79l8.76 3.58 5.58-3.17a104.88 104.88 0 0 1 12.36-1.52 24.13 24.13 0 0 0 4.06-.25l-11.57 7.12-7.33 9.76a22.12 22.12 0 0 1-6.24 1.09c-3.22 0-10.82-1.84-10.82-1.84z" class="I"/><path d="M141.26,285.48s-15.37.91-20.78,13.18c-3.61,8.18-11,44.22-12.14,50.81s0,14.62,5.28,18.78,49.07,22.81,49.07,22.81l9.13-17.59-36.94-22.94h-1.2l4.42-26.47" class="F"/><g class="B"><path d="M138.1 324.05v.46l-.21 1.34-.82 5.2-3.18 19.49-.16-.18h1.25 0l37 22.88.19.12-.1.19-9.12 17.6-.1.21-.22-.1-28.06-12.31q-5.76-2.61-11.32-5.27l-5.46-2.74a23.54 23.54 0 0 1-5.11-3.25 14.32 14.32 0 0 1-3.33-5 20.56 20.56 0 0 1-1.43-5.66 28 28 0 0 1 0-5.71c.18-1.88.57-3.69.9-5.49l4.28-20.28c1.42-6.34 2.84-12.22 4.28-17.55.72-2.66 1.46-5.19 2.27-7.55a22 22 0 0 1 3.35-6.19 22.43 22.43 0 0 1 4.51-4.14 26.52 26.52 0 0 1 4.53-2.45 31.27 31.27 0 0 1 6.83-2 28.71 28.71 0 0 1 1.83-.24 5 5 0 0 1 .63 0l-.62.08c-.42.06-1 .15-1.83.3a31.9 31.9 0 0 0-6.76 2.08 26.17 26.17 0 0 0-4.47 2.46 22.26 22.26 0 0 0-4.42 4.12 21.63 21.63 0 0 0-3.27 6.12c-.79 2.35-1.52 4.87-2.22 7.54-1.42 5.33-2.81 11.21-4.21 17.55l-4.24 20.27c-.32 1.8-.71 3.61-.88 5.45a26.23 26.23 0 0 0 0 5.6c.43 3.72 1.76 7.59 4.61 10.3a23.6 23.6 0 0 0 5 3.17c1.78.93 3.61 1.83 5.45 2.72q5.55 2.65 11.3 5.26l28 12.33-.32.12 9.14-17.59.08.31-36.89-23h.08-1.2-.19v-.19l3.38-19.43.91-5.19.24-1.33c.06-.33.1-.43.1-.43zm58.63-19.94c.05 0-.21.93-.39 2.61a23.73 23.73 0 0 0-.1 3.07c0 1.2.19 2.56.4 4.07a87.28 87.28 0 0 1 1.09 10.63 33 33 0 0 1-2.06 12.92c-1.69 4.35-3.9 8.21-5.27 11.95a25 25 0 0 0-1.09 10.45c.19 3 .47 5.47.65 7.16l.19 1.94a3.57 3.57 0 0 1 0 .69 2.93 2.93 0 0 1-.14-.67l-.3-1.94c-.23-1.68-.57-4.12-.81-7.16a25 25 0 0 1 1-10.63c1.37-3.81 3.57-7.68 5.24-12a33.34 33.34 0 0 0 2.06-12.73 92.05 92.05 0 0 0-1-10.6c-.18-1.51-.3-2.89-.32-4.1a19.82 19.82 0 0 1 .19-3.11 15.68 15.68 0 0 1 .38-1.92 3.21 3.21 0 0 1 .28-.63zm-54.27 7.1c-.1 0 .38-1.39.63-3.66a20.93 20.93 0 0 0 .06-4 24 24 0 0 0-.94-4.8 22.92 22.92 0 0 0-4.27-7.77c-1.47-1.75-2.6-2.64-2.53-2.72a3.8 3.8 0 0 1 .82.58 16.14 16.14 0 0 1 2 1.9 21.49 21.49 0 0 1 4.49 7.85 23.2 23.2 0 0 1 .92 4.93 19.4 19.4 0 0 1-.17 4.08 13.36 13.36 0 0 1-.3 1.55 7.5 7.5 0 0 1-.33 1.13 4.14 4.14 0 0 1-.38.93zm21.3 36.6a23 23 0 0 0 4.16-1.62 18.71 18.71 0 0 0 1.9-1.22 24.28 24.28 0 0 0 1.94-1.71 23.72 23.72 0 0 0 3.65-4.65 31.72 31.72 0 0 0 3.89-10l.67-4.45a6 6 0 0 1 0 1.21 26 26 0 0 1-.33 3.31 29.24 29.24 0 0 1-3.81 10.23 22.13 22.13 0 0 1-3.76 4.73 21.62 21.62 0 0 1-2 1.71 17.21 17.21 0 0 1-2 1.19 11.2 11.2 0 0 1-1.75.75 8.51 8.51 0 0 1-1.38.39 6.63 6.63 0 0 1-1.18.13z"/><path d="M124 355.32a12.32 12.32 0 0 1 5-3.6 12.53 12.53 0 0 1 6-1.26 37.18 37.18 0 0 0-5.81 1.74 37 37 0 0 0-5.19 3.12z"/></g><path d="M200.3,373.74a1.57,1.57,0,0,1-1.19,1.29,1.75,1.75,0,0,1-.4,0c-1,0-1.41-1.79-1.41-1.79l-4.34.59s-6.2,7.86-8.39,10.09c-8.61,8.78-10.85,2.44-10.85,2.44l2.66-10.31,5.51-9.22s-.35.56-.22-.89,2.68-1.7,2.68-1.7c.17-.75,1.67-1.45,1.67-1.45l6.91-1.28a4.79,4.79,0,0,1,4,1.08l4.19,3.6s2.48,2.76,2.47,3.59a1.4,1.4,0,0,1-1.29,1.35s.32,2.22-.21,2.46a4.9,4.9,0,0,1-1.78.11Z" class="I"/><g class="K"><path d="M184.15 371.76c0 .07.89-.29 2.34-.66a21 21 0 0 1 5.76-.65 20.53 20.53 0 0 1 3.18.34c.94.21 1.9.32 2.34.83a.84.84 0 0 1 .17.82 1.2 1.2 0 0 1-.38.58c-.3.25-.56.22-.55.27s.26.12.66-.13a1.25 1.25 0 0 0 .5-.64 1.08 1.08 0 0 0-.16-1.09 2.2 2.2 0 0 0-1.12-.69l-1.38-.35a18.4 18.4 0 0 0-9.11.41 8.26 8.26 0 0 0-2.25.96z"/><path d="M185 376.16c0 .12 2.73-.82 6.13-1.65l6.19-1.37a7 7 0 0 0-1.87.11 39.39 39.39 0 0 0-4.43.83 40.83 40.83 0 0 0-4.31 1.31 7.25 7.25 0 0 0-1.71.77zm15.21-2.58a3.1 3.1 0 0 0-.13-.74 17.29 17.29 0 0 0-.6-1.95 8.22 8.22 0 0 0-.6-1.3 4.17 4.17 0 0 0-1.1-1.25 9.48 9.48 0 0 0-3.29-1.8 13 13 0 0 0-3.68-.63 11.63 11.63 0 0 0-3 .44l-1.95.6a2.49 2.49 0 0 0-.69.29 23.25 23.25 0 0 0 2.71-.58 12.64 12.64 0 0 1 2.94-.34 13.24 13.24 0 0 1 3.56.65 9.51 9.51 0 0 1 3.17 1.69 5.29 5.29 0 0 1 1.66 2.35l1 2.57zm-13.35-9.16c0 .07 1-.21 2.68-.52s4.1-.87 6.15.82a23.76 23.76 0 0 1 5 4.2 14.7 14.7 0 0 1 1.4 2.31 2.11 2.11 0 0 0-.18-.72 7 7 0 0 0-1-1.78 20.74 20.74 0 0 0-5-4.38 7.79 7.79 0 0 0-1.7-.92 5 5 0 0 0-1.8-.25 14.88 14.88 0 0 0-3 .41 10.83 10.83 0 0 0-2.55.83z"/><path d="M188.46 380a3.82 3.82 0 0 0 .3-.43l.85-1.24a47.08 47.08 0 0 1 3.46-4.36h-.09l4.35-.56-.2-.13a4.33 4.33 0 0 0 .39 1 2 2 0 0 0 .77.85 1.16 1.16 0 0 0 .63.08 1.59 1.59 0 0 0 .59-.14 1.8 1.8 0 0 0 .85-.89 1.33 1.33 0 0 0 .11-.3v-.13h0l-.22.17h.16q.3 0 .6 0 .3 0 .6 0a1.83 1.83 0 0 0 .32-.07.67.67 0 0 0 .36-.19 1.27 1.27 0 0 0 .24-.67 4.43 4.43 0 0 0 0-.63 10.51 10.51 0 0 0-.09-1.25l-.19.24a1.64 1.64 0 0 0 1.38-1 1.32 1.32 0 0 0 0-.92 5.29 5.29 0 0 0-.39-.75 23.15 23.15 0 0 0-2.05-2.62h0l-2.19-1.92-1.42-1.22a9 9 0 0 0-1.49-1.14 4.86 4.86 0 0 0-1.81-.54 6 6 0 0 0-1.81.17l-6.47 1.22h0a5.2 5.2 0 0 0-1 .63 1.89 1.89 0 0 0-.76 1l.21-.14a2.42 2.42 0 0 0-2.11.77 2.85 2.85 0 0 0-.54 2v-.1l-3.81 6.32-1 1.74a3.81 3.81 0 0 0-.33.62 3 3 0 0 0 .41-.58l1.09-1.68L182 367h0v-.06a2.49 2.49 0 0 1 .49-1.76 2 2 0 0 1 1.78-.63h.17v-.16a1.66 1.66 0 0 1 .62-.75 6.51 6.51 0 0 1 .95-.58h0l6.52-1.18a5.74 5.74 0 0 1 1.69-.16 4.16 4.16 0 0 1 1.64.49 8.22 8.22 0 0 1 1.41 1.09l1.42 1.22 2.31 1.88h0a23.75 23.75 0 0 1 2 2.56 3.59 3.59 0 0 1 .35.67.89.89 0 0 1 0 .62 1.19 1.19 0 0 1-1 .73h-.22v.21a9.69 9.69 0 0 1 .09 1.2 2 2 0 0 1-.15 1 .48.48 0 0 1-.17.07 1.09 1.09 0 0 1-.26.05 3.38 3.38 0 0 1-.55 0 3.62 3.62 0 0 1-.57 0h-.15c.2-.14-.26.2-.21.17h0 0v.07a.9.9 0 0 1-.08.23 1.37 1.37 0 0 1-.66.7 1.2 1.2 0 0 1-.46.11.68.68 0 0 1-.43 0 2.71 2.71 0 0 1-1-1.59v-.15h-.15l-4.34.62h-.06 0a42.45 42.45 0 0 0-3.38 4.47l-.78 1.29a2.79 2.79 0 0 0-.36.57z"/></g><g opacity=".3"><path d="M179.61,328.81a31.67,31.67,0,0,1-4.17,10.44c-2.39,3.66-5.38,5.59-9.1,7.88l-.28.11a14.08,14.08,0,0,0,13.55-18.43Z"/></g><defs ><path id="B" d="M323.49 319.9a2.06 2.06 0 1 1-2.06-2.06 2.06 2.06 0 0 1 2.06 2.06z"/><path id="C" d="M564.05 412.2h1.47v7.38h-1.47z"/><path id="D" d="M567.88 421l-39.4.07c-21.75 0-39.4 0-39.4-.07s17.64-.06 39.4-.06l39.4.06z"/><path id="E" d="M491.46 412.32h13.25v-1.46h-13.25a.73.73 0 0 0-.73.73h0a.73.73 0 0 0 .73.73z"/><path id="F" d="M492.32 393.3l5.49.06 5.49-.06c0-.06-2.46-.07-5.49-.07l-5.49.07z"/><path id="G" d="M492.32 398.63l5.49.06 5.49-.06c0-.06-2.46-.06-5.49-.06l-5.49.06z"/><path id="H" d="M717.43 237.47c-11.75 6.09-20.76 16.57-27.24 28.11s-10.65 24.2-14.79 36.77l-3.62 64.84c13.67-23.27 24.65-50.61 27.61-77.43l-9.1-.81c6.11-.93 11.23-5.35 14.49-10.6s4.93-11.28 6.57-17.23l-11.1 1.65a41.13 41.13 0 0 0 17.18-25.3z"/></defs></svg>