<svg xmlns="http://www.w3.org/2000/svg" viewBox="0 0 750 500" xmlns:v="https://vecta.io/nano"><style><![CDATA[.B{fill:#263238}.C{fill:#eee}.D{fill:#a6a6a6}.E{fill:#ebebeb}.F{fill:#dbdbdb}.G{fill:#fff}.H{fill:#455a64}.I{fill:#ad6359}.J{opacity:.1}.K{fill:#37474f}.L{fill:#d3766a}.M{fill:#ffc4c0}.N{fill:#c7c7c7}]]></style><path d="M228.75,150.65H102.11V64H228.75Zm-125.64-1H227.75V65H103.11Z" class="E"/><path d="M112,69.59a2.52,2.52,0,1,1-2.52-2.52A2.52,2.52,0,0,1,112,69.59Z" class="D"/><use href="#B" class="E"/><use href="#B" x="10.29" class="C"/><path d="M102.61 74.03h125.64v1H102.61zm535.1 33.16l.15-5.41c0-5.49-2-8-7.07-8.13-2.41-.15-3.79-1.57-3.79-3.65s1.43-3.46 3.84-3.61c5.11-.22 7.07-2.63 7.07-8.2 0-1.27-.15-4.28-.15-5.41 0-7.3 3.08-12 14.74-14.52a3.25 3.25 0 0 1 2 6.17c-7.29 2.26-8.35 4.59-8.35 9.7 0 1.51.15 4 .15 5.57 0 5.87-2.85 8.72-7.82 10.3 5 1.66 7.82 4.44 7.82 10.31 0 1.58-.15 4.06-.15 5.56 0 5.12 1.06 7.45 8.35 9.71a3.25 3.25 0 0 1-2 6.17c-11.71-2.52-14.79-7.19-14.79-14.56zm44.08-34.37l-.15 5.41c0 5.57 2 8 7.14 8.2 2.33.15 3.76 1.58 3.76 3.61s-1.43 3.46-3.76 3.61c-5.11.15-7.14 2.64-7.14 8.13 0 1.28.15 4.29.15 5.41 0 7.37-3.09 12-14.75 14.6a3.16 3.16 0 0 1-4.13-3.09 3.12 3.12 0 0 1 2.18-3.08c7.22-2.26 8.27-4.59 8.27-9.71 0-1.5-.15-4-.15-5.56 0-5.87 2.86-8.73 7.83-10.31-5-1.65-7.83-4.43-7.83-10.3 0-1.58.15-4.06.15-5.57 0-5.11-1.05-7.44-8.27-9.7A3.24 3.24 0 0 1 667 58.3c11.7 2.56 14.79 7.22 14.79 14.52zM68 223.39a2.67 2.67 0 0 1 0 3.79 2.72 2.72 0 0 1-1.85.76 2.84 2.84 0 0 1-1.94-.76l-11.83-12c-.13 0-.17-.13-.21-.26a.55.55 0 0 0-.13-.08 1.16 1.16 0 0 1-.12-.34.21.21 0 0 1-.13-.16c0-.09 0-.22-.08-.26s-.09-.17-.09-.21v-.29-.26-.21-.29c0-.08.09-.13.09-.17s0-.21.08-.34 0 0 0-.08.13-.29.21-.38a.08.08 0 0 1 .09-.08.74.74 0 0 1 .25-.3l11.83-12a2.75 2.75 0 0 1 3.79 0 2.67 2.67 0 0 1 0 3.79L58 213.32zm10.72 1.35L89 200.19a2.34 2.34 0 0 1 3.11-1.19 2.28 2.28 0 0 1 1.18 3L83 226.55a2.34 2.34 0 0 1-2.15 1.39 2.1 2.1 0 0 1-.84-.17 2.27 2.27 0 0 1-1.29-3.03zm34.95-9.9a1.61 1.61 0 0 1-.29.3l-11.83 12a2.74 2.74 0 0 1-3.79 0 2.67 2.67 0 0 1 0-3.79l10-10.07-10-10.06a2.67 2.67 0 0 1 0-3.79 2.75 2.75 0 0 1 3.79 0l11.83 12a1.61 1.61 0 0 1 .29.3v.08c.08.17.16.25.21.38s0 0 0 .08a1.56 1.56 0 0 0 .13.38v.13.29.21.22.33.09a2.13 2.13 0 0 0-.13.38v.12c0 .12-.13.25-.21.42zm576.04 94.22l8.29-13.37-4.12-2.55a3.74 3.74 0 0 1-1.71-3.52 22 22 0 0 0 .08-2.3 3.76 3.76 0 0 1 2-3.43l4.24-2.28-7.49-13.87-4.24 2.26a3.71 3.71 0 0 1-3.85-.21 21 21 0 0 0-2.13-1.32 3.68 3.68 0 0 1-1.9-3.36l.15-4.81-15.72-.49-.15 4.83a3.68 3.68 0 0 1-2.13 3.23l-1.1.55-1.06.6a3.66 3.66 0 0 1-3.85 0l-4.12-2.55-8.3 13.37 4.13 2.56a3.72 3.72 0 0 1 1.71 3.51 21.91 21.91 0 0 0-.08 2.29 3.77 3.77 0 0 1-2 3.44l-4.25 2.27 7.44 13.87 4.25-2.27a3.77 3.77 0 0 1 3.94.27 19.63 19.63 0 0 0 2 1.2 3.7 3.7 0 0 1 2 3.36l-.15 4.86 15.73.49.15-4.82a3.74 3.74 0 0 1 2.18-3.25 10.38 10.38 0 0 0 1-.52l1-.58a3.74 3.74 0 0 1 3.92 0zm-11.89-10.82a12.89 12.89 0 1 1 4.55-15 12.89 12.89 0 0 1-4.55 15zm-74.96 42.61l9.55-5.51-1.69-2.92a2.62 2.62 0 0 1 .1-2.75 15.55 15.55 0 0 0 .82-1.43 2.63 2.63 0 0 1 2.33-1.45h3.37v-11H614a2.63 2.63 0 0 1-2.33-1.45 15.55 15.55 0 0 0-.82-1.43 2.62 2.62 0 0 1-.1-2.75l1.69-2.92-9.55-5.51-1.68 2.94a2.63 2.63 0 0 1-2.44 1.28h-.81-.81a2.61 2.61 0 0 1-2.42-1.27l-1.7-3-9.55 5.51 1.69 2.93a2.62 2.62 0 0 1-.09 2.75 15.48 15.48 0 0 0-.83 1.42 2.62 2.62 0 0 1-2.32 1.45h-3.38v11h3.38a2.62 2.62 0 0 1 2.32 1.45 15.48 15.48 0 0 0 .83 1.42 2.62 2.62 0 0 1 .09 2.75l-1.69 2.93 9.55 5.51 1.69-2.93a2.62 2.62 0 0 1 2.42-1.28h.82.81a2.63 2.63 0 0 1 2.44 1.28zm-4.93-10.54a9 9 0 1 1 9-9 9 9 0 0 1-9 9zM85.77 102.85a2.62 2.62 0 0 1 1.28 2.43v.81.82a2.6 2.6 0 0 1-1.28 2.42L82.84 111l5.51 9.55 2.93-1.69A2.62 2.62 0 0 1 94 119a15.38 15.38 0 0 0 1.42.82 2.63 2.63 0 0 1 1.45 2.33v3.37h11v-3.37a2.63 2.63 0 0 1 1.45-2.33 15.38 15.38 0 0 0 1.42-.82 2.62 2.62 0 0 1 2.75-.1l2.93 1.69L122 111l-3-1.7a2.61 2.61 0 0 1-1.27-2.42v-.81-.81a2.62 2.62 0 0 1 1.28-2.43l2.94-1.69-5.51-9.55-2.92 1.69a2.62 2.62 0 0 1-2.75-.09 15.64 15.64 0 0 0-1.43-.83 2.63 2.63 0 0 1-1.45-2.33v-3.35h-11v3.37a2.63 2.63 0 0 1-1.45 2.33 15.64 15.64 0 0 0-1.43.83 2.62 2.62 0 0 1-2.75.09l-2.92-1.69-5.51 9.55zm16.64-5.79a9 9 0 1 1-9 9 9 9 0 0 1 9-9z" class="E"/><path d="M50.72 441.6l81.07-.24 81.07-.09 162.14-.16 162.14.16 81.07.09 81.07.24-81.07.25-81.07.09-162.14.16-162.14-.16-81.07-.09-81.07-.25z" class="B"/><path d="M68.63 419.29h612.74v22.32H68.63z" class="N"/><path d="M122.94 82.07h504.11v337.22H122.94z" class="F"/><path d="M126.61 86.18H623.4v328.99H126.61z" class="B"/><g class="G"><use href="#C"/><use href="#C"/></g><path d="M148.6 107.33h452.79v11.03H148.6z" class="C"/><use href="#D" class="N"/><use href="#E" class="G"/><use href="#D" x="17" class="H"/><path d="M430.4 190.15h56.29v2.15H430.4z" class="E"/><path d="M401.44 190.15h25v2.15h-25zm-197.75-10.19h63.13v2.15h-63.13zm211.18-10.18h83.9v2.15h-83.9zm-100.45 49.97h83.9v2.15h-83.9z" class="D"/><path d="M203.69 190.15h192.03v2.15H203.69z" class="C"/><use href="#F" class="D"/><g class="E"><use href="#G"/><use href="#G" x="8.56" y="30.55"/></g><path d="M402.92 210.51h72.44v2.15h-72.44z" class="C"/><path d="M259.18 210.51h139.21v2.15H259.18z" class="E"/><path d="M212.25 210.51h39v2.15h-39z" class="D"/><path d="M270.4 179.96h149.99v2.15H270.4z" class="E"/><path d="M424.02 179.96h89.49v2.15h-89.49zm-163.16-10.18h149.93v2.15H260.86z" class="C"/><g class="E"><use href="#F" y="10.18"/><use href="#F" y="20.37"/></g><use href="#F" y="30.55" class="D"/><g class="E"><use href="#F" y="40.73"/><use href="#F" y="49.97"/><path d="M203.69 219.75h102.95v2.15H203.69z"/><use href="#F" y="60.15"/></g><path d="M212.25 229.93h66.09v2.15h-66.09zm-8.56 30.55h63.13v2.15h-63.13z" class="D"/><path d="M212.25 240.12h44.29v2.15h-44.29zm101.43 40.72h44.29v2.15h-44.29z" class="C"/><path d="M261.46 240.12h164.63v2.15H261.46z" class="D"/><path d="M203.69 270.66h192.03v2.15H203.69z" class="C"/><g class="E"><path d="M282.5 229.93h136.03v2.15H282.5zm136.41 20.37h28.42v2.15h-28.42z"/><use href="#F" y="70.34"/></g><use href="#F" y="80.52" class="D"/><g class="E"><use href="#G" y="80.52"/><path d="M270.4 260.48h149.99v2.15H270.4z"/></g><path d="M260.86 250.3h149.93v2.15H260.86z" class="C"/><g class="E"><use href="#F" y="90.7"/><use href="#F" y="111.06"/><path d="M203.69 280.84h102.95v2.15H203.69z"/><use href="#F" y="121.24"/></g><path d="M212.25 291.02h66.09v2.15h-66.09z" class="D"/><path d="M190 149.57a.76.76 0 0 1-.53 1.3.79.79 0 0 1-.56-.22l-3.38-3.43-.06-.07a.08.08 0 0 0 0 0v-.1a.05.05 0 0 1 0 0v-.08-.06-.08-.07-.06-.09a.32.32 0 0 0 0-.09.88.88 0 0 1 .06-.1 0 0 0 0 1 0 0 .17.17 0 0 1 .07-.08l3.38-3.44a.79.79 0 0 1 1.09 0 .77.77 0 0 1 0 1.09l-2.86 2.88zm3.05.43l2.95-7a.66.66 0 0 1 1.22.5l-3 7a.67.67 0 0 1-.61.4.52.52 0 0 1-.24-.05.65.65 0 0 1-.32-.85zm10-2.88h0a.76.76 0 0 1-.09.09l-3.39 3.43a.75.75 0 0 1-.54.22.76.76 0 0 1-.54-1.3l2.86-2.88-2.86-2.88a.77.77 0 1 1 1.08-1.09l3.39 3.44s.06.06.09.08 0 0 0 0l.06.1a.37.37 0 0 0 0 .11v.09.06.15a.37.37 0 0 0 0 .11.54.54 0 0 0-.06.27z" class="C"/><path d="M435.14 72.58h103.1v65.77h-103.1z" class="G"/><path d="M538.89,139H434.49V71.93h104.4Zm-103.09-1.3H537.59V73.23H435.8Z" class="E"/><path d="M435.45 72.37h102.48V83.4H435.45z" class="C"/><use href="#D" x="286.84" y="-34.96" class="N"/><path d="M454.36 77.89a2.09 2.09 0 1 1-2.08-2.09 2.09 2.09 0 0 1 2.08 2.09z" class="G"/><path d="M462.89 77.89a2.09 2.09 0 1 1-2.09-2.09 2.1 2.1 0 0 1 2.09 2.09z" class="H"/><path d="M452.54 109.46A12.71 12.71 0 0 1 465.25 97a12.93 12.93 0 0 1 8 2.7 2.05 2.05 0 0 1 .35 2.77 2 2 0 0 1-2.77.38 8.68 8.68 0 0 0-5.58-1.9 9.16 9.16 0 0 0-6.23 2.49 8.55 8.55 0 0 0-2.53 6 8.43 8.43 0 0 0 2.53 6 9.16 9.16 0 0 0 6.23 2.49 8.74 8.74 0 0 0 5.58-1.9 2.1 2.1 0 0 1 2.77.38 2 2 0 0 1-.35 2.77 12.93 12.93 0 0 1-8 2.7 12.67 12.67 0 0 1-12.71-12.42zm27.02 6.44a1.81 1.81 0 0 1 2.53-.24 11.28 11.28 0 0 0 6.61 2.67 7.49 7.49 0 0 0 4.33-1.28 3.13 3.13 0 0 0 1.49-2.5 2 2 0 0 0-.31-1.11 3.39 3.39 0 0 0-1-1 14.06 14.06 0 0 0-4.75-1.62h-.07a19.25 19.25 0 0 1-4.46-1.35 7.42 7.42 0 0 1-3.22-2.71 5.22 5.22 0 0 1-.8-2.84 6.4 6.4 0 0 1 2.77-5 10.23 10.23 0 0 1 6-1.84c3.33 0 5.79 1.63 7.55 2.77a1.79 1.79 0 0 1 .49 2.46 1.76 1.76 0 0 1-2.46.52c-1.77-1.18-3.47-2.22-5.58-2.22a6.65 6.65 0 0 0-3.88 1.18 2.76 2.76 0 0 0-1.31 2.18 1.68 1.68 0 0 0 .24 1 3.2 3.2 0 0 0 .93.9 11.87 11.87 0 0 0 4.33 1.53h.01a19.87 19.87 0 0 1 4.78 1.45 8.2 8.2 0 0 1 3.47 2.88 5.6 5.6 0 0 1 .83 2.94 6.71 6.71 0 0 1-3 5.37 10.83 10.83 0 0 1-6.41 2 15 15 0 0 1-8.87-3.47 1.84 1.84 0 0 1-.24-2.67zm22.75 0a1.81 1.81 0 0 1 2.53-.24 11.34 11.34 0 0 0 6.62 2.67 7.49 7.49 0 0 0 4.33-1.28 3.13 3.13 0 0 0 1.49-2.5 2.06 2.06 0 0 0-.31-1.11 3.39 3.39 0 0 0-1-1 14.06 14.06 0 0 0-4.75-1.62h-.07a19.34 19.34 0 0 1-4.47-1.35 7.48 7.48 0 0 1-3.22-2.71 5.3 5.3 0 0 1-.79-2.84 6.37 6.37 0 0 1 2.77-5 10.21 10.21 0 0 1 6-1.84c3.32 0 5.78 1.63 7.55 2.77a1.79 1.79 0 0 1 .49 2.46 1.76 1.76 0 0 1-2.46.52c-1.77-1.18-3.47-2.22-5.58-2.22a6.62 6.62 0 0 0-3.88 1.18 2.75 2.75 0 0 0-1.32 2.18 1.61 1.61 0 0 0 .25 1 3.2 3.2 0 0 0 .93.9 11.87 11.87 0 0 0 4.33 1.53h.07a20 20 0 0 1 4.78 1.45 8.11 8.11 0 0 1 3.46 2.88 5.61 5.61 0 0 1 .84 2.94 6.71 6.71 0 0 1-3 5.37 10.83 10.83 0 0 1-6.41 2 15 15 0 0 1-8.87-3.47 1.84 1.84 0 0 1-.31-2.67z" class="E"/><path d="M69.39 122.18h103.1v65.77H69.39z" class="G"/><path d="M173.14,188.59H68.74V121.53h104.4ZM70,187.29h101.8V122.83H70Z" class="E"/><path d="M69.7 121.97h102.48V133H69.7z" class="C"/><path d="M80.09 127.49A2.09 2.09 0 1 1 78 125.4a2.09 2.09 0 0 1 2.09 2.09z" class="N"/><path d="M88.61 127.49a2.09 2.09 0 1 1-2.09-2.09 2.08 2.08 0 0 1 2.09 2.09z" class="G"/><use href="#E" x="-70.38" y="14.64" class="H"/><path d="M88.21 159.24a12.71 12.71 0 0 1 12.71-12.47 12.93 12.93 0 0 1 8 2.7 2.05 2.05 0 0 1 .35 2.77 2 2 0 0 1-2.77.38 8.68 8.68 0 0 0-5.58-1.9 9.2 9.2 0 0 0-6.24 2.49 8.57 8.57 0 0 0-2.52 6 8.48 8.48 0 0 0 2.52 6 9.2 9.2 0 0 0 6.24 2.49 8.74 8.74 0 0 0 5.58-1.9 2.09 2.09 0 0 1 2.77.38 2 2 0 0 1-.35 2.77 13 13 0 0 1-8 2.7 12.67 12.67 0 0 1-12.71-12.41zm33.21 2.18h-4.92a1.9 1.9 0 0 1-1.9-1.9 1.93 1.93 0 0 1 1.9-1.91h4.92v-4.81a2 2 0 1 1 4 0v4.81h4.92a1.93 1.93 0 0 1 1.91 1.91 1.9 1.9 0 0 1-1.91 1.9h-4.92v4.82a2 2 0 0 1-4 0zm21.48 0H138a1.89 1.89 0 0 1-1.9-1.9 1.92 1.92 0 0 1 1.9-1.91h4.92v-4.81a2 2 0 1 1 4 0v4.81h4.92a1.92 1.92 0 0 1 1.9 1.91 1.89 1.89 0 0 1-1.9 1.9h-4.92v4.82a2 2 0 1 1-4 0z" class="E"/><path d="M575.05 442.07c2.13.67 64.57-.68 66.85-2.21.87-.56-4.48-59.7-4.48-59.7l-39.59.76 4.5 39.56s-23 10.91-25.37 12.85-4.05 8.08-1.91 8.74z" class="I"/><path d="M575.05 442.07c2.13.66 64.57-.69 66.85-2.21.27-.17.35-6.17-.64-14-11.32 1.89-51.73 8.1-54.88 6.25-2.19-1.29-.25-3.31 1.55-4.67-5.16 2.58-10 5.05-11 5.88-2.28 1.94-4.02 8.09-1.88 8.75z" class="B"/><path d="M601.22 411l38.87-.55-7.38-94.89c.41-2.3 28-110.44 28-110.44H623.6l-30.31 110.51c-1.7 15.68 7.93 95.37 7.93 95.37z" class="K"/><g class="B"><path d="M636.59 401.67l-6.92-.17c-2.3-.03-4.61 0-6.91 0l-13.83.25-3.78.13-4 .34c-.1 0-.1.16 0 .16 1.13 0 2.26.18 3.39.21l3.53.05h6.91c4.61 0 9.22-.1 13.83-.29 2.6-.11 5.23-.14 7.82-.4a.141.141 0 0 0-.04-.28zm15.95-187.81c-3.32 11.75-6.36 23.61-9.33 35.46l-8.89 35.57q-2.22 8.89-4.43 17.79c-1.43 5.77-3.1 11.58-3.46 17.54s.41 12.18.92 18.22l1.56 18.21 3.4 36.41.48 4.55c0 .13.22.12.21 0l-2.61-36.43q-.74-9.1-1.49-18.21c-.5-6-1.2-12.13-1.39-18.21a64.75 64.75 0 0 1 2.4-17.93q2.18-8.7 4.36-17.41 4.46-17.78 8.89-35.57l9.49-40a.06.06 0 1 0-.11.01z"/><path d="M660.7 205.13l-20.11 79.05-15.79-79.05z"/></g><path d="M620.67 442.21c2.14.67 64.57-.68 66.85-2.2.88-.56-2.38-59.74-2.38-59.74l-39.07.76 1.93 39.59s-23 10.92-25.37 12.85-4.1 8.08-1.96 8.74z" class="I"/><path d="M620.67 442.21c2.14.67 64.57-.68 66.85-2.2.28-.18.21-6 0-14-11.32 1.9-52.35 8.11-55.5 6.26-2.19-1.29-.25-3.3 1.54-4.66-5.15 2.57-10 5-11 5.88-2.29 1.92-4.02 8.07-1.89 8.72z" class="B"/><path d="M623.8 205.11l6.65 32.33a66.57 66.57 0 0 1 10.76 5.37l2.39 74.86c-.17 15.77 3.86 92.54 3.86 92.54l39.2-.37-4.08-92.6c0-5.58-2.67-40.81-5-71.36 0 0 3.49-9.76 3.1-14.69-.93-11.94-6.29-26.07-6.29-26.07z" class="K"/><g class="B"><path d="M637.68 228.94l-.44-2.95-1-5.38c-.71-4.06-1.46-8.14-2.36-12.17 0-.1-.19-.07-.18 0 .16 1.63.35 3.25.58 4.87l.62 4.87 1.45 9.62c.21 1.23 1 3.44-.8 3.82-1.4.31-2.43-1.07-2.84-2.23a26.89 26.89 0 0 1-1-4.43c-.29-1.62-.54-3.25-.77-4.88q-.75-5.33-1.63-10.63c0-.1-.18-.07-.18 0 .12 3.65.31 7.26.79 10.88.23 1.72.48 3.45.78 5.17a18 18 0 0 0 1.19 4.81 3.9 3.9 0 0 0 2.93 2.36h.18a.12.12 0 0 0 0 .1c0 .58 0 1.16.07 1.73s.17 1.14.28 1.7a12.73 12.73 0 0 0 .44 1.69 7.28 7.28 0 0 0 .31.77c.13.27.31.47.46.72.06.1.18 0 .19-.06h0a2.72 2.72 0 0 1 0-.28.43.43 0 0 0 0 0h0a2.91 2.91 0 0 0 0-.51c0-.27-.1-.55-.16-.82-.12-.55-.27-1.09-.42-1.63s-.26-1.09-.4-1.63-.33-1.11-.46-1.67a2.57 2.57 0 0 0 2.48-1.56 4.36 4.36 0 0 0-.11-2.28z"/><path d="M644.15 243.85a30.52 30.52 0 0 0-3.69-2.43 36.3 36.3 0 0 0-4.2-2.18c-2.84-1.23-5.76-2.07-8.68-3-.09 0-.15.12-.06.15 2.83 1.13 5.55 2.63 8.28 4l4.09 1.89 4.15 1.83a.141.141 0 0 0 .11-.26zm22.13-21.61a24 24 0 0 1-5.91-.79l-2.64-.8a6.9 6.9 0 0 1-2.39-1.2c-1.34-1.16-2-3-2.55-4.6a44.92 44.92 0 0 1-1.55-5.59c0-.09-.15-.06-.16 0a21.6 21.6 0 0 0 .81 6.34c.48 1.75 1.13 3.71 2.54 4.93a9.87 9.87 0 0 0 5.42 2 24.72 24.72 0 0 0 6.43-.08c.14-.01.14-.21 0-.21zm-45.84-1.54a4.36 4.36 0 0 0 2.31-.79 8.55 8.55 0 0 0 1-.8 3.45 3.45 0 0 0 .93-1.2 19.38 19.38 0 0 0 1-4.6l.6-5.59c0-.1.06-.06.07 0a55.33 55.33 0 0 1-.32 6.35 18.52 18.52 0 0 1-1 4.93 3.29 3.29 0 0 1-2.12 2 3.89 3.89 0 0 1-2.52-.09c0-.02 0-.21.05-.21zm64.48 181.55l-6.92-.17c-2.3-.03-4.61 0-6.91 0l-13.83.25-3.78.13-4 .34a.09.09 0 0 0 0 .17c1.13 0 2.26.18 3.39.21h3.53 6.91c4.61 0 9.22-.11 13.83-.3 2.6-.1 5.23-.14 7.82-.4a.12.12 0 0 0-.04-.23zm-4.78-5.11h0a.48.48 0 0 0 .46-.5l-8.85-151.93c.11-.67 2.61-9.16 2.83-13.49.23-4.59-4.51-22.45-4.71-23.2a.48.48 0 0 0-.92.24c0 .18 4.9 18.47 4.67 22.91s-2.81 13.35-2.82 13.43 8.84 152.09 8.84 152.09a.49.49 0 0 0 .5.45zm-26.01-233.57a2.43 2.43 0 0 0 1.94-.11l.51-.36a1.54 1.54 0 0 1 .92-.17 7.53 7.53 0 0 0 1.06 0 2.86 2.86 0 0 0 2.53-1.8 3.53 3.53 0 0 0 4.08-1.68 3.41 3.41 0 0 0 .24-.6 2.11 2.11 0 0 1 .28-.89 2.93 2.93 0 0 1 .82-.49 3.22 3.22 0 0 0 .62-.42 1.36 1.36 0 0 0 .32-1.78 2.27 2.27 0 0 0 1.41-2 3.9 3.9 0 0 0-1.09-3 2.66 2.66 0 0 0-.25-3.73 2.37 2.37 0 0 0-1.07-3.39 3.46 3.46 0 0 0-1.2-3.05 1.47 1.47 0 0 1-.41-.54 2.65 2.65 0 0 0-.52-2.2 2 2 0 0 0-2.27-.55 4 4 0 0 0-1.34-1.35 2.65 2.65 0 0 0-2.66-.17 3.79 3.79 0 0 0-5.66-.49 2.75 2.75 0 0 0-2.81-1.15 5.3 5.3 0 0 0-3.08 2.14 1.91 1.91 0 0 0-2.46-.3 2.1 2.1 0 0 0-.89 1.82 3 3 0 0 0-1.89 1.26 1.78 1.78 0 0 0 0 1.91 2.62 2.62 0 0 0-.93 4.32 3.13 3.13 0 0 0-1.55 5.54 2.76 2.76 0 0 0-1.31 2.76 4.1 4.1 0 0 0 2.23 2.95 2.81 2.81 0 0 0 .3 2.95 3.62 3.62 0 0 0 2.58 1.28 2.63 2.63 0 0 1-2.84-.74 3 3 0 0 1 0-3.64 2.9 2.9 0 0 0-.13 3.82 3 3 0 0 0 3.61.63 3.27 3.27 0 0 0 4.8 3.47c1.39 2.46 5.15 2.67 6.11-.25zm10.58-24.49a.19.19 0 0 1 0-.08 3.26 3.26 0 0 0-.25-.68 2.74 2.74 0 0 0-1.14-1.12 2.65 2.65 0 0 0-.73-.26 4.31 4.31 0 0 0-.43-.05.55.55 0 0 0 0-.1 2.12 2.12 0 0 1 2.25.94 2.56 2.56 0 0 1 .3 1.35zm-21.3-1.93h0a1.77 1.77 0 0 1 .73-1.61 1.8 1.8 0 0 1 2.29.25v.05a2 2 0 0 0-2.31.27 2.18 2.18 0 0 0-.71 1.04zm5.59 27.48a3.67 3.67 0 0 0 5-1.11h0c-1.11 2.41-3.3 2.34-5 1.11z"/></g><g class="I"><path d="M645.47 163c-3.37 11.42-21 40.65-32.7 43.25-9.38 2.1-36.56-3.78-43.73-5.48-6-1.43-1.14-26.83 3.93-26.53 6.32.39 28.49 10.66 33.88 8.63 2.13-.8 14.59-11.51 29.54-24.59 5.79-5.05 11.09-2.08 9.08 4.72z"/><path d="M560.78 203.18c5.67 1.18 18.22-1 21.05-2.62s-.08-23.14-3-24.83-22.34-4.18-27.61-1.5 3.68 27.77 9.56 28.95z"/></g><path d="M609.35 223.75L491.22 122.52l-1.27.91L606.6 226.9l2.75-3.15z" class="B"/><path d="M557.11 173.14c2.7 1.46-.57 3.81-.57 3.81s5.52-2.24 7.72.34-1.93 5.19-2.22 5.39c.29-.12 5.42-2 7.37.78s-2.52 4.94-2.81 5.07c.31 0 4.43-.25 5.42 2.23 1.7 4.27-8.82 5.15-11.1 8.08l4.64 4.59s-10 1-13.77-2.25a3.21 3.21 0 0 1-.78-3.94s-3.18.69-4.78-1.49c-.82-1.12.24-3.42.24-3.42a4 4 0 0 1-3.87-1.58c-1.05-1.61.18-3.68.18-3.68s-2.67-.71-3.2-2.71c-1.08-4.02 11.75-14.36 17.53-11.22z" class="I"/><g class="B"><path d="M542.92 186.72s-.1 0-.06-.06a28.56 28.56 0 0 1 13.85-9.86c.17-.05.34.21.15.31a58.51 58.51 0 0 0-13.94 9.61zm3.47 5.63c0 .05-.12 0-.08-.09a26.76 26.76 0 0 1 15.78-9.81c.22 0 .45.14.2.21-4.21 1.07-12.05 6.01-15.9 9.69zm20.68-3.74c-6.1 1.31-11.18 4.45-15.92 8.43-.07.05-.13 0-.09-.1 1.79-2.58 5.08-4.8 7.79-6.3a16.41 16.41 0 0 1 8.15-2.24c.14 0 .21.18.07.21z"/><path d="M556.54 177a18.84 18.84 0 0 1 3.37-.69 6.25 6.25 0 0 1 3.26.37 2 2 0 0 1 1 1.06 2.92 2.92 0 0 1 .21 1.51 3.69 3.69 0 0 1-1.73 2.44l-2.09 1.31 2.46-.55a10.12 10.12 0 0 1 3.33-.21 3.67 3.67 0 0 1 2.7 1.34 2.11 2.11 0 0 1 0 2.65 6.39 6.39 0 0 1-2.61 1.84l-2.76 1.14 3-.18a9.68 9.68 0 0 1 2.46.16 4 4 0 0 1 2.08 1 1.93 1.93 0 0 1 .46 1.95 4.29 4.29 0 0 1-1.61 1.71 33.72 33.72 0 0 1-4.61 2.33l-2.38 1.13a6.23 6.23 0 0 0-2.12 1.53 6.82 6.82 0 0 1 2.22-1.31l2.44-.94a28.43 28.43 0 0 0 4.84-2.14 4.89 4.89 0 0 0 2-2 2.69 2.69 0 0 0-.56-2.9 4.93 4.93 0 0 0-2.54-1.3 10.58 10.58 0 0 0-2.75-.22l.21 1a7.24 7.24 0 0 0 3.11-2.14 3 3 0 0 0 .67-2 3.49 3.49 0 0 0-.68-1.92 4.64 4.64 0 0 0-3.41-1.7 11.26 11.26 0 0 0-3.66.29l.34.82a4.33 4.33 0 0 0 2-3.12 3.65 3.65 0 0 0-.35-1.85 2.65 2.65 0 0 0-1.38-1.3 6.46 6.46 0 0 0-3.53-.17 15.38 15.38 0 0 0-3.39 1.06z"/></g><path d="M577.53 175.39s-27.76-11.81-26.71-1.16c.32 3.17 5.38 15.79 7.93 14.83 3.3-1.25 2.17-6.92.9-10.36 0 0 7.43 4 11.77-.31a10.77 10.77 0 0 1 6.11-3z" class="I"/><path d="M550.79 173.34a13.05 13.05 0 0 0 .47 3.72 28.24 28.24 0 0 0 1.17 3.58 42.42 42.42 0 0 0 3.3 6.78A6.7 6.7 0 0 0 557 189a2.68 2.68 0 0 0 1 .57 1.72 1.72 0 0 0 .63.08 1.75 1.75 0 0 0 .61-.13 3.18 3.18 0 0 0 1.63-1.47 5.9 5.9 0 0 0 .59-2 11.61 11.61 0 0 0-.27-3.87 26 26 0 0 0-1.11-3.64l-.62.53a16 16 0 0 0 2.69 1 14.13 14.13 0 0 0 2.82.5 9.34 9.34 0 0 0 2.84-.23 7.3 7.3 0 0 0 2.58-1.14 8.27 8.27 0 0 1-2.63.85 10.47 10.47 0 0 1-2.74 0 13.57 13.57 0 0 1-2.66-.64 15 15 0 0 1-2.48-1.11l-1-.56.34 1.09a28 28 0 0 1 1 3.53 11.21 11.21 0 0 1 .21 3.54 3.1 3.1 0 0 1-1.55 2.6c-.77.36-1.66-.68-2.31-1.65a35.14 35.14 0 0 1-1.86-3.17l-1.66-3.32a23.82 23.82 0 0 1-2.26-7.02z" class="B"/><path d="M581.13 175.36l2.92 30.29s21.52 4.56 30.57 1.26 25.48-27.18 30.21-38 2.06-20.3-10.7-9.94L606.56 182c-.44.23-25.43-6.64-25.43-6.64z" class="C"/><path d="M590.17 191.67c-.17-2.18-1-10.83-1.38-12.93 0-.06-.1 0-.1 0-.06 2.17.55 10.89.73 13.06.36 4.35.67 8.73 1.37 13 0 .08.15.08.15 0 0-4.35-.42-8.75-.77-13.13z" class="B"/><path d="M644.83 168.88c-4.73 10.85-21.17 34.73-30.22 38-4.59 1.68-12.4 1.32-19 .58l45.83-52.81c6.29-1.56 7.01 5.93 3.39 14.23z" class="J"/><path d="M623.8,205.11h50.55s-8.61-35.2-20.25-47.64c-5.3-5.66-10.47-4.8-14.86-1.16-1.1.91-14.67,18.14-15.82,24.15-1,5.3,3.3,11.19,3.3,11.19Z" class="C"/><path d="M632.68 189.11a25.9 25.9 0 0 1 5.31 1c.87.28 1.73.62 2.59 1l1.29.5a4 4 0 0 0 1.38.31v.1a7.06 7.06 0 0 1-1.3 0 6.19 6.19 0 0 1-1.26-.28l-2.65-.89-5.37-1.54c-.09 0-.08-.21.01-.2zm-4.25 2.51a25.81 25.81 0 0 1 4.37-.52 16.24 16.24 0 0 1 2.2.08l1 .13c.39.05.77.18 1.16.22v.09h-1.09H635h-2.19l-4.39.09c-.06.09-.06-.08.01-.09z" class="B"/><path d="M659.38 159.37c12.86 12 28.63 26.68 27.78 31-3.07 15.42-10.46 22.19-15.31 30.28-1.39 2.31-12.11 2.43-16.62-.72-2.48-1.73-3.72-7.26-3.34-7.93l13.14-22.14c.74-1.45-9.49-14.14-13.92-24.35-6.01-13.89 3.25-10.84 8.27-6.14z" class="I"/><path d="M678.83 222.17l-27-13.13s10.43-17.86 11.08-20.18c.51-1.8-10-16.13-13-24.69-2.86-8.16-1.06-14.29 11.77-3 14 12.29 24.94 22.08 26.06 28.23 1.26 6.66-8.91 32.77-8.91 32.77z" class="C"/><g class="B"><path d="M668.24 209.74c-2-1-9.81-4.69-11.82-5.42-.06 0-.09.07 0 .1 1.83 1.16 9.64 5.09 11.6 6.05 3.92 1.91 7.84 3.89 11.9 5.48.09 0 .15-.08.07-.12-3.82-2.25-7.81-4.15-11.75-6.09zm-13.93-4.63l4.8-9.12a63.13 63.13 0 0 0 3.26-6.86.7.7 0 0 0 0-.45c-1.37-3.68-3.62-7.13-5.47-10.68l-4.94-9c1 1.41 1.92 2.85 2.87 4.28a149.16 149.16 0 0 1 7.8 13.39 8.71 8.71 0 0 1 .73 1.94 1.48 1.48 0 0 1-.05.81 44.45 44.45 0 0 1-3.53 7c-1.74 3-3.54 5.9-5.47 8.75z"/><path d="M652,171.56a32.41,32.41,0,0,1,3.27,2.82,5.56,5.56,0,0,1-3.27-2.82Z"/></g><path d="M650.91 156c-.22 1-4.9 7.51-9.45 7.35-1.48-.06-1.54-8.16-1.54-8.16l-.14-.6-2-8.36 9.78-6.43 1.44-.8.84 5.22c0 .14 0 .27.07.41s.06.32.08.47l.21 1.32c0 .33.1.66.14 1l.13 1.06a54.07 54.07 0 0 1 .44 7.52z" class="I"/><path d="M649.84 144.17a17.19 17.19 0 0 1-10.06 10.42l-2-8.36 9.78-6.43 1.44-.8.84 5.17z" class="B"/><path d="M625.4 130.75c-4.3 14.45 3.87 18.66 7 19.58 2.83.84 12.57 3.33 18.33-10.59s.41-20.5-6-22.76-15.03-.68-19.33 13.77z" class="I"/><g class="B"><path d="M628.18 128.86a7.26 7.26 0 0 0 1 .06 1.7 1.7 0 0 0 1.07-.13.54.54 0 0 0 .17-.64 1.33 1.33 0 0 0-1.18-.64 1.93 1.93 0 0 0-1.36.34.57.57 0 0 0 .3 1.01zm9.98 2.7a9.1 9.1 0 0 1-.93-.48 1.69 1.69 0 0 1-.85-.66.53.53 0 0 1 .17-.63 1.36 1.36 0 0 1 1.35 0 2 2 0 0 1 1 1 .57.57 0 0 1-.74.77zm-3.28 2.94s.06.07 0 .11c-.33 1-.54 2.14.26 2.73v.06c-1.02-.48-.73-2.03-.26-2.9z"/><path d="M636.06 133.73c1.62.36.8 3.57-.7 3.24s-.65-3.53.7-3.24z"/><path d="M636.65 134.06c.23.26.43.65.75.77s.77-.12 1.11-.38v.05c-.15.62-.55 1.19-1.23 1.11s-.91-.72-.91-1.38c.04-.12.19-.23.28-.17zm-7.24-1.19s-.09 0-.1.07c-.22 1-.64 2.12-1.62 2.22v.06c1.13.12 1.67-1.37 1.72-2.35z"/><path d="M628.78 131.61c-1.58-.52-2.5 2.66-1 3.14s2.31-2.75 1-3.14z"/><path d="M628.05 131.62c-.3.1-.64.33-.94.27s-.52-.5-.64-.9h-.06c-.19.6-.18 1.29.37 1.58s1.05-.15 1.37-.71c.06-.08.02-.27-.1-.24zm4.85 11.07c-.29.18-.6.46-1 .41a2.7 2.7 0 0 1-1-.48s-.07 0 0 0a1.39 1.39 0 0 0 1.16.82 1.08 1.08 0 0 0 1-.73c-.06-.01-.12-.05-.16-.02zm-3.4-2.69a4.1 4.1 0 0 0 1.17 1.76 1.87 1.87 0 0 0 1.06.44c.85.06 1.12-.66 1.18-1.32a4.88 4.88 0 0 0 0-1.06 5.47 5.47 0 0 1-3.41.18z"/></g><path d="M630.67 141.8a1.87 1.87 0 0 0 1.06.44c.85.06 1.12-.66 1.18-1.32a1.94 1.94 0 0 0-2.24.88z" fill="#ff97b8"/><g class="B"><path d="M629.72 138a21.26 21.26 0 0 0-.79 2.12c0 .07.14.14.37.22h0a3.46 3.46 0 0 0 3.56-.37.08.08 0 0 0-.08-.13 5.23 5.23 0 0 1-3.27.06c0-.21 1.12-2.41 1-2.45a6.52 6.52 0 0 0-1.68-.07l3.93-8.8c0-.11-.11-.19-.17-.1a52.49 52.49 0 0 0-4.64 9.31c-.12.38 1.46.21 1.77.21zm7.95-19.42a6.84 6.84 0 0 0-.54 4c1 3.68 5.21 3.55 6.34 5.15s.13 4 1.08 5.49c1.3 2 3.65 1.78 3.7 3s.13 5.1 1.53 5.85 12.85-22.78-6.72-25.62c0 0-2.46-1.59-7-.26-5 1.46-8.27 8.54-8.27 8.54l.77-.46c1.09-.66 1.6-1.36 2.39-1.77 1.23-.64 1.77-.21 3-.83a12.83 12.83 0 0 0 3.72-3.09z"/><path d="M638.17 117.56a13 13 0 0 0-1.12 2.87 5.52 5.52 0 0 0-.13 3 4.12 4.12 0 0 0 1.9 2.16c.86.51 1.86.8 2.78 1.38a3 3 0 0 1 1.12 1.23 4.18 4.18 0 0 1 .29 1.6 5.64 5.64 0 0 0 .57 2.91 3.43 3.43 0 0 0 2.4 1.58 7.22 7.22 0 0 1 3 .72 7.14 7.14 0 0 0-3-.48 3.72 3.72 0 0 1-2.68-1.62 5.54 5.54 0 0 1-.7-3.08 3.64 3.64 0 0 0-.27-1.43 2.63 2.63 0 0 0-1-1c-.82-.54-1.82-.85-2.73-1.41a5.09 5.09 0 0 1-1.25-1 3.13 3.13 0 0 1-.79-1.41 5.8 5.8 0 0 1 .26-3.15 13.24 13.24 0 0 1 1.35-2.87z"/><path d="M637.63 118.38a11 11 0 0 1-1.44 2.51 5.06 5.06 0 0 1-2.35 1.79 7.11 7.11 0 0 1-1.44.27 2.39 2.39 0 0 0-1.18.51 6.76 6.76 0 0 1-1.06 1 3.15 3.15 0 0 1-1.37.49 3.56 3.56 0 0 0 1.22-.68 7.57 7.57 0 0 0 .94-1.07 2.51 2.51 0 0 1 1.37-.7 7.59 7.59 0 0 0 1.36-.28 5.38 5.38 0 0 0 2.21-1.58 20.24 20.24 0 0 0 1.74-2.26z"/></g><path d="M648.84 144.73a2.57 2.57 0 0 1-.72 0 2.5 2.5 0 0 1-.7-.12 2.24 2.24 0 0 1-.79-.45 2.64 2.64 0 0 1-.47-.55 2.91 2.91 0 0 1-.39-.94l1.63-3.78s4.17-4 6-2.37-1.91 7.81-4.56 8.21z" class="I"/><path d="M652.29 138.31a0 0 0 1 1 0 .06 6.47 6.47 0 0 0-4.07 3.28 1.41 1.41 0 0 1 2.14 0s0 .1-.07.08a1.57 1.57 0 0 0-1.8.19 7.77 7.77 0 0 0-1.09 1.2c-.11.14-.37 0-.28-.17h0c.43-2.19 2.77-4.95 5.17-4.64z" class="B"/><path d="M648.77 144.07a.7.7 0 1 1-.37-.92.71.71 0 0 1 .37.92zm1.61-.74a.49.49 0 0 1-.64.26.51.51 0 0 1-.27-.65.5.5 0 0 1 .91.39z" class="G"/><path d="M369.05 331.16l2.4 14.37 16.24 97.81h2.62l-11.81-97.81-1.75-14.37h-7.7z" class="F"/><path d="M376.75 331.16h-7.7l2.4 14.37h7.05l-1.75-14.37z" class="D"/><path d="M318.06 443.34h2.61l16.24-97.81 2.4-14.37h-7.7l-1.75 14.37-11.8 97.81z" class="F"/><path d="M331.61 331.16l-1.75 14.37h7.05l2.4-14.37h-7.7z" class="D"/><path d="M269.34 443.34h2.62l16.24-97.81 2.4-14.37h-7.7l-1.75 14.37-11.81 97.81z" class="F"/><path d="M281.15 345.53h7.05l2.4-14.37h-7.7l-1.75 14.37z" class="D"/><path d="M273.5 337.91h119v-12.54h-44.55l-14.97-87.1h-54.95l-4.53 99.64z" class="F"/><path d="M273.5 337.91h6.48l4.23-99.64h-6.18l-4.53 99.64z" class="D"/><path d="M378.5 285.14h8.13v40.23h-8.13z" class="F"/><path d="M378.5 285.14h8.13v6.83h-8.13z" class="D"/><g class="L"><path d="M328.17 227.56c5.83 18.52 13.63 40.44 17.75 43.79 5.21 4.25 35.88 8.51 37.49 8.57 2.65.11 6.56-27.24 4.11-27-6.48.5-26.59-.41-28.11-1.74s-9.41-13-20.65-26.23c-7.76-9.17-14.21-8.88-10.59 2.61z"/><path d="M380.89 278.93a79.51 79.51 0 0 0 10.75 3.59c2.91.6 11.33 2.09 12.3-1 .67-2.14-4.18-3.6-7.58-4.71-1.79-.58-4.08-2.23-3.65-3.39.73-2 5.36-.42 8.43 1.06 5.94 2.84 14 8.18 17.22 5 1.23-1.2-.45-3.06-2.84-4.82 3.8 2 7.8 3.52 9.21 2.25a1.92 1.92 0 0 0 .22-2.62 2.5 2.5 0 0 0 2.75-.66c1.08-1.32.36-3.09-1.07-4.85a1.38 1.38 0 0 0 1-.78c2.19-4-11.14-13.89-15.53-14.57a109.29 109.29 0 0 0-26.22-.37c-4.65 4.36-5 25.87-4.99 25.87z"/></g><path d="M398.59 265.78a21.55 21.55 0 0 1 8.71 2.58c3.38 1.86 5.71 4.17 8.61 6.45.08.06 0 .18-.09.12-1.38-1.08-7.06-5.12-8.52-6a20.41 20.41 0 0 0-8.72-3.07s-.02-.08.01-.08zm1.93-5.57a51.82 51.82 0 0 1 10.11 2.62c3.52 1.46 6.39 4.05 9.21 6.55 1.69 1.5 3.36 3 5 4.61.07.07 0 .19-.09.12q-4.31-3.87-8.83-7.49a27.09 27.09 0 0 0-9.42-4.93c-2-.57-4-1-6-1.42a0 0 0 0 1 .02-.06zm3.18-4.98c3.29.4 6.16.74 9.16 2.25a46.85 46.85 0 0 1 9.35 6.83l4.5 4.33c.06.06 0 .17-.11.11a105 105 0 0 0-10.65-9 21.76 21.76 0 0 0-5.8-3.15 39.35 39.35 0 0 0-6.45-1.36s-.01-.02 0-.01z" class="B"/><path d="M385.29 251.18l-7.36 32s-27.28-5.48-32.58-10.35-13.47-31.3-17.17-44.25 3-13.15 9.76-5.35 20.62 26.7 21.5 27.07 25.85.88 25.85.88z" class="C"/><path d="M375.26 254.92a16.15 16.15 0 0 0 2.61-1.69c1.86-1.15 4.69.71 3.94 2.93a7.91 7.91 0 0 1-5.07 5c-2.25.75-5 .28-6.25-1.93a2.75 2.75 0 0 1 2.3-4.1 10.66 10.66 0 0 0 2.47-.21zm-10.36-4.28a2.51 2.51 0 0 0 .27 1c1.67 3.19 7.55 2.29 9.05-.7l-9.32-.3zm-6.71 7c.07 2 2.25 3.18 3.95 3.59a4.76 4.76 0 0 0 4.67-1.13 1.61 1.61 0 0 0-1.17-2.69 5 5 0 0 1-2.41-.49c-1.13-.57-2.36-1.5-3.69-1.07a1.89 1.89 0 0 0-1.35 1.8zm1.25-7.34a35.74 35.74 0 0 1-3.4-4.08 2.19 2.19 0 0 0-1.16 2.42c.39 2.31 3.87 4 6 3.31a1.85 1.85 0 0 0 1.24-1.43 20.37 20.37 0 0 1-2.68-.21zm6 15.43c.81 3.4 6.7 3.13 8.51.83.61-.76.52-2.32-.71-2.47-1-.12-2-.05-3-.23-1.19-.22-2.29-.88-3.53-.46a1.94 1.94 0 0 0-1.23 2.34zm-19 3.88a1.9 1.9 0 0 0-3.67-.28 14.92 14.92 0 0 0 2.54 3.49 6.55 6.55 0 0 0 .67.54 6 6 0 0 0 .5-3.74zm-4.25-9c-.72-1.25-2.81-1.79-3.68-.52l3.16 7.15a6.89 6.89 0 0 0 .35-.83c.6-1.61 1.11-4.26.21-5.8z" class="J"/><path d="M374.27 269.52l2.58-11.35 1.29-6.5c0-.08-.12-.12-.15 0l-3 11.33-2.61 11.35a109.67 109.67 0 0 0-1.21 6.51s.06.06.08 0c1.19-3.75 2.11-7.53 3.02-11.34z" class="B"/><path d="M374 282.35c-7.76-1.73-24.61-5.8-28.65-9.51-5.3-4.87-13.47-31.3-17.17-44.25-1.77-6.21-1.16-9.5.72-10.36.2.08.42.19.63.3 10.63 13.02 29.93 44.27 44.47 63.82z" class="J"/><path d="M390 451.51c-2.34.27-66.36-13.78-68.4-15.81-.25-.23.9-6 2.6-14v-.15c1.06-5 18.91-45.88 18.91-45.88l41.52 10.79-18.1 37.92s7.88 5.48 14.64 10.69h0a90.43 90.43 0 0 1 8.55 7c2.07 2.51 2.64 9.2.28 9.44z" class="L"/><path d="M390 451.51c-2.33.27-66.34-13.78-68.4-15.81-.24-.23.91-6 2.61-14v-.15c.39-1.87 3.13-8.73 6.4-16.6l40.22 10.44-4.29 9s7.88 5.48 14.64 10.69a92.64 92.64 0 0 1 8.55 7c2.06 2.5 2.63 9.19.27 9.43z" class="E"/><path d="M390.24 451.81c-2.4.25-66.47-14-68.57-16.06-.8-.78.43-10.87 3.74-21.6l41.29 9.22s21.29 16.25 23.35 18.78 2.6 9.41.19 9.66z" class="D"/><path d="M321.67 435.76c1.41 1.39 30.54 8.21 50.39 12.5 9.83 2.13 17.39 3.64 18.18 3.56 2.41-.26 1.85-7.14-.19-9.67a94.5 94.5 0 0 0-8.33-7.1l-15-11.69-41.3-9.21c-3.31 10.73-4.55 20.85-3.75 21.61z" class="C"/><path d="M372.06,448.26c9.83,2.13,17.39,3.64,18.18,3.56,2.41-.26,1.85-7.14-.19-9.67a94.5,94.5,0,0,0-8.33-7.1Z" class="J"/><g class="B"><path d="M389.89 449.05c-10.68-2.65-54-12.32-64.77-14.13-.08 0-.1 0 0 .07 10.53 2.85 53.93 12.17 64.74 14.23.22.05.26-.12.03-.17zm-3.45-10.12a8.84 8.84 0 0 0-7 1.2 8.6 8.6 0 0 0-3.67 5.2c0 .06.11.09.13 0a10.21 10.21 0 0 1 10.52-6.29.07.07 0 0 0 .02-.11z"/><use href="#H"/><use href="#H" x="3.03" y="2.03"/><path d="M375.89 429.25c-4.29-1-9.61-.6-13.06 2.32-.13.11 0 .3.17.27a60.61 60.61 0 0 1 12.85-2 .296.296 0 0 0 .04-.59zm3.03 2.03c-4.28-1-9.61-.6-13.06 2.32-.13.12 0 .3.17.27a60.61 60.61 0 0 1 12.85-2 .296.296 0 0 0 .04-.59zm-11.05-5.93l-44.08-11s37.61-84.1 34.42-88.44c-1.59-2.17-42.74-3.3-55.7-14.56-16.83-14.63-5.16-36.53-5.16-36.53l46-.82s-.67 9.61 1.11 11.08c1.17 1 55.88 6.24 61.68 24.79 7.08 22.79-38.27 115.48-38.27 115.48z"/></g><path d="M369.8 416a27.39 27.39 0 0 0-3.62-1.3l-3.86-1.24q-3.79-1.17-7.64-2.21l-15.52-4-8.86-2c-.17 0-.21.32-.05.38 5 1.72 10.12 3.19 15.22 4.68s10.19 2.94 15.35 4.18l4.29 1a32.31 32.31 0 0 0 4.56.92c.15-.02.33-.3.13-.41zm-3.68-93.77c-.91-.8-2.3-.91-3.45-1.12l-19.87-3.58-18.59-3.38c-5.11-1-10.3-2.45-14.69-5.28a21.41 21.41 0 0 1-8.9-11.94 38.51 38.51 0 0 1-1-15.19c.14-1.23.38-2.46.63-3.68 0-.09-.13-.12-.15 0-1.8 9.4-2.08 20.34 4.89 27.94 3.4 3.7 8.1 5.91 12.91 7.36 5.42 1.64 11.1 2.45 16.68 3.45l19.87 3.57c3.18.57 6.42 1 9.58 1.72a3.29 3.29 0 0 1 1.72.79 2.47 2.47 0 0 1 .25 2.3c-.34 1.56-.78 3.11-1.24 4.64-3.76 12.3-27.76 70.08-28.47 71.43-.08.14.14.26.22.12 6.22-10.79 23.3-55.2 27.46-66.86a72.79 72.79 0 0 0 2.72-9.08c.24-1.11.39-2.37-.57-3.21z" class="K"/><path d="M453.94 457.55c-2.24.72-67.77-.3-70.18-1.88-.29-.17-.32-6.1-.23-14.22v-.15c0-5.14-1-49.08-1-49.08l41 .15 2 43.28s8.81 3.79 16.47 7.55a90.88 90.88 0 0 1 9.77 5.18c2.52 2.02 4.41 8.46 2.17 9.17z" class="L"/><path d="M453.94 457.55c-2.23.72-67.77-.3-70.18-1.89-.29-.16-.32-6.09-.23-14.2v-1.25-.79-1.17c0-3.42-.15-9-.28-15l41.79.23.57 12.21s8.8 3.8 16.47 7.55a93.5 93.5 0 0 1 9.77 5.17c2.43 1.99 4.33 8.43 2.09 9.14z" class="E"/><path d="M454.21 457.8c-2.3.72-67.92-.46-70.39-2.08-.94-.62-1.74-10.75-.64-21.92l42.3.81s24.1 11.68 26.62 13.76 4.42 8.7 2.11 9.43z" class="C"/><path d="M453.32 455.16c-11-.47-55.38-1.32-66.28-1-.09 0-.09.06 0 .07 10.89.7 55.28 1.19 66.29 1.06.22.04.22-.12-.01-.13zm-5.4-9.23a8.87 8.87 0 0 0-6.63 2.57 8.57 8.57 0 0 0-2.56 5.83c0 .06.12.07.13 0a10.22 10.22 0 0 1 9.06-8.26.07.07 0 0 0 0-.14zm-19.01-10.15c-4.4-.14-9.54 1.32-12.34 4.87-.11.14.09.29.22.22a60.74 60.74 0 0 1 12.21-4.55.274.274 0 0 0-.09-.54zm3.37 1.38c-4.4-.14-9.53 1.32-12.33 4.88-.11.13.09.28.22.22a60.51 60.51 0 0 1 12.18-4.55.28.28 0 0 0-.07-.55zm3.38 1.39c-4.41-.14-9.54 1.32-12.34 4.87-.11.14.09.29.22.23a61.38 61.38 0 0 1 12.18-4.56.272.272 0 0 0-.06-.54zm3.34 1.39c-4.4-.15-9.53 1.32-12.33 4.87-.11.13.09.29.22.22a60.29 60.29 0 0 1 12.18-4.55.28.28 0 0 0-.07-.54zm-11.43-5.35h-45.12s.75-84.46-2.82-89.14c-4.76-6.24-72.4-6.9-86.66-27.24-12.82-18.26-1.51-43.75-1.51-43.75l51.23-.91a105 105 0 0 1-4.94 16.07s61.57 12.13 78.63 31.26c11.51 12.86 11.19 113.71 11.19 113.71z" class="B"/><g class="K"><path d="M346.8 286.17a24.58 24.58 0 0 0-4.35 1.34l-4.36 1.84a87.27 87.27 0 0 0-8.16 4.48c-.08.05 0 .17.08.13l8.55-3.87 4.16-1.73 4.2-1.8a.21.21 0 0 0-.12-.39z"/><path d="M343.88 273.49l-1.85 7-1 3.17c-.35.86-.87 1.85-1.88 2-1.17.21-1.49-.79-1.38-1.74a31.55 31.55 0 0 1 .63-3.19l.75-3.64.35-1.82a15.01 15.01 0 0 1 .25-1.66.06.06 0 0 0 .06.06h0a.07.07 0 0 0 .07-.06c0-.09 0-.11-.06-.17a.08.08 0 0 0-.1 0c-.22.11-.24.42-.32.64l-.57 1.77-1 3.36-.87 3.37a5.21 5.21 0 0 0-.26 2.59 2 2 0 0 0 1.82 1.52l-.13.22-.27.71-.25.73c-.07.25-.05.24-.07.36s0 .27 0 .41a.191.191 0 0 0 .36.13 3.62 3.62 0 0 1 .22-.32 2 2 0 0 0 .18-.39l.21-.71.19-.71c.05-.24 0-.29 0-.43a2.63 2.63 0 0 0 1.36-.5 4.54 4.54 0 0 0 1.42-2.12l.94-3a45.09 45.09 0 0 0 1.58-7.52.22.22 0 0 0-.38-.06zm-30.52 5.36l-.66 3.48a32.52 32.52 0 0 1-1 3.33 11.58 11.58 0 0 1-1.46 3 11.25 11.25 0 0 1-2.29 2.28 19.26 19.26 0 0 1-5.53 3 25.3 25.3 0 0 1-3.06.86 18.08 18.08 0 0 1-1.64.27 3.25 3.25 0 0 0-1.31.29.26.26 0 0 0 0 .45 4.75 4.75 0 0 0 2.43.11 17.41 17.41 0 0 0 2.6-.43 18.73 18.73 0 0 0 4.93-2 15.57 15.57 0 0 0 4.14-3.3 11.64 11.64 0 0 0 2.25-4.78 23.92 23.92 0 0 0 .79-6.52c.02-.14-.17-.17-.19-.04zM389 375.74q-.56-10.9-1.55-21.8l-.52-5.37a17.12 17.12 0 0 0-.85-4.08c-1-2.74-3.29-4.14-6-4.87-3.23-.86-6.57-1.39-9.85-2s-6.73-1.11-10.1-1.62l-20.47-3.23a162.89 162.89 0 0 1-20.12-4.77c-6-1.9-12.2-4.23-17-8.49-10.31-9.16-10.51-24.3-9.09-37 .2-1.78.45-3.57.68-5.35 0-.09-.13-.12-.14 0-.91 7.12-2 14.29-1.33 21.49a35.12 35.12 0 0 0 5.5 16.72c3.47 5.1 8.65 8.44 14.27 10.78a112.86 112.86 0 0 0 19.12 5.85c13.48 3 27.26 4.36 40.83 6.85 1.68.31 3.35.63 5 1a20.69 20.69 0 0 1 4.51 1.26c3.07 1.42 3.89 4.44 4.23 7.55.81 7.23 1.32 14.5 1.76 21.76.88 14.62 1.26 29.32 1.06 44 0 1.81-.06 3.62-.1 5.43 0 .16.24.15.25 0a480.6 480.6 0 0 0-.09-44.11zm36.9 51.52a29.18 29.18 0 0 0-3.84-.37l-4-.25-8-.28-16-.08-9.09.22c-.16.07-.12.36 0 .37 5.29.44 10.6.62 15.91.81s10.6.37 15.9.3c1.47 0 2.93-.08 4.4-.12a31.42 31.42 0 0 0 4.65-.22c.17-.03.24-.34.07-.38zm-43.38-35.04c.16-6 .15-12.08.06-18.12s-.33-12.07-.73-18.11a70 70 0 0 0-1.15-9.05 8.85 8.85 0 0 0-.35-1.15 2.94 2.94 0 0 0-.32-.6 2.43 2.43 0 0 0-.48-.48 8.57 8.57 0 0 0-2.11-1.11 31.56 31.56 0 0 0-4.4-1.29 137.69 137.69 0 0 0-17.92-2.71l8.91 1.55c2.96.55 5.92 1.15 8.82 1.92a42.3 42.3 0 0 1 4.26 1.36 7.89 7.89 0 0 1 1.87 1 1.43 1.43 0 0 1 .51.72 7.59 7.59 0 0 1 .3 1 72.5 72.5 0 0 1 1 8.91c.48 6 .69 12 1 18.06z"/><path d="M406.81 313.17a107.66 107.66 0 0 0-16.2-8.41c-5.6-2.41-11.33-4.47-17.1-6.42s-11.64-3.58-17.53-5.09-11.84-2.83-17.81-4l8.81 2.35 8.79 2.41c5.84 1.67 11.67 3.36 17.42 5.31s11.48 3.93 17.12 6.17a158.03 158.03 0 0 1 8.36 3.59c2.75 1.28 5.48 2.61 8.14 4.09z"/></g><path d="M349 286.9l-64.8 7.12c-.3-.42 14.3-57.68 30.47-72.67 4.78-4.44 13.72-4.86 17.59-1.75 11.46 9.21 17.68 66.4 16.74 67.3z" class="C"/><path d="M309.62 280.77a16.4 16.4 0 0 0 2.78 1.39c1.94 1 1.77 4.4-.52 4.88a7.92 7.92 0 0 1-6.87-1.85c-1.78-1.56-2.79-4.19-1.5-6.36a2.75 2.75 0 0 1 4.7-.1 11.21 11.21 0 0 0 1.41 2.04zm-2.26-10.38c-2 3.25 2.31 8.23 5.77 7.37a2 2 0 0 0 1.13-2.9c-.57-.95-1.21-1.3-1.72-2.17a3.42 3.42 0 0 1-.41-.93 5.26 5.26 0 0 0-1-1.93c-1.13-1.24-3.02-.64-3.77.56zm-8.74-3c-1.64 1.05-1.59 3.55-1.09 5.23a4.73 4.73 0 0 0 3.34 3.44 1.6 1.6 0 0 0 1.72-2.36 5 5 0 0 1-.79-2.33c-.09-1.26.1-2.8-.95-3.72a1.9 1.9 0 0 0-2.23-.22zm20.79 11.75a1.82 1.82 0 0 0-2.15 1.33 2.13 2.13 0 0 0 1.27 2.4 3.33 3.33 0 0 0 2 .23 1.53 1.53 0 0 0 .86-.62 1.59 1.59 0 0 0 .33-1 1.72 1.72 0 0 0-1.18-1.54 1 1 0 0 0-.19-.23 2.11 2.11 0 0 0-.94-.53zM304.71 260c-1.8 1.5-1.51 5.36.18 6.83a1.74 1.74 0 0 0 2.88-.84 5.65 5.65 0 0 0 .14-1.15c0-.42 0-.69.07-.93a9.38 9.38 0 0 0 .35-2.51 2.14 2.14 0 0 0-3.62-1.4zm-9.37 17.78c-2.52 2.42.7 7.37 3.59 7.77 1 .13 2.27-.74 1.77-1.87-.39-.91-1-1.73-1.29-2.67-.41-1.14-.41-2.42-1.4-3.27a1.93 1.93 0 0 0-2.67.07zm47.38-8.12c-.18 1.11-.11 2.08-.82 3a14.63 14.63 0 0 0-2.09 2.68 1.45 1.45 0 0 0 1.55 1.93 6.86 6.86 0 0 0 5.12-7.7 1.9 1.9 0 0 0-3.76.12zm-4.44-9c-.39 1.38-.12 2.86-.41 4.3a34.9 34.9 0 0 1-1 3.87c-.3.91.68 2.2 1.68 1.6a7.4 7.4 0 0 0 3.52-4.06c.55-1.6 1.07-4.26.17-5.8s-3.39-1.87-3.96.13zm-4 13.86a9.11 9.11 0 0 1-2.73 2.83 2.09 2.09 0 1 0 2.14 3.55 7.54 7.54 0 0 0 3.65-5.21 1.71 1.71 0 0 0-3.03-1.13zm-23.43-47.33a8.85 8.85 0 0 0-.79-.5q-1.39 2-2.75 4.25l.83.66c1.18 1.06 2.1 2.58 3.82 2.66a2.17 2.17 0 0 0 2.34-1.86c.33-2.12-1.79-4.04-3.42-5.17zm8 12.93c.68-1.27-.15-2.92-.87-4a3.59 3.59 0 0 0-1.55-1.31 1.81 1.81 0 0 0-2.43.83 2.39 2.39 0 0 0 .09 1.78 6.52 6.52 0 0 0 .43.83.44.44 0 0 1 .05.09v.07a5.88 5.88 0 0 0 1.44 2.46 1.85 1.85 0 0 0 2.84-.71zm4-6.21a11.57 11.57 0 0 0-3.44-6.19c-1.34-1.36-3.63-3.53-5.7-2.74a1.12 1.12 0 0 0-.65 1.16c.06 1.65 2.14 3.19 3.11 4.4 1.21 1.53 2.14 3.27 3.38 4.78a1.87 1.87 0 0 0 3.34-1.32zm-4.58 14.69a2.63 2.63 0 0 0 1.08-.16 2.23 2.23 0 0 0 1.15-1.17 3.62 3.62 0 0 0 .17-1.73 3.28 3.28 0 0 0-.62-1.51l-.36-.36-.46-.26a2 2 0 0 0-1.27 0 2 2 0 0 0-1.43 1.66 9.53 9.53 0 0 0-.13 1.77l.14.52a1.62 1.62 0 0 0 .48.67 2.08 2.08 0 0 0 1.29.61zm5.18-4.19a1.79 1.79 0 0 0 1.47-1.53 4.35 4.35 0 0 0-.41-2.24 3.78 3.78 0 0 0-1.23-1.73 1.39 1.39 0 0 0-2.19.94 7.1 7.1 0 0 0 .18 1.71c0 .24.05.49.07.73a4.46 4.46 0 0 0 .25 1.08 1.74 1.74 0 0 0 1.9 1.08z" class="J"/><path d="M315.2 217.57c-23.12 8.85-51 31.38-50.36 39.91.67 9.5 33.87-3 33.7-4.39-.15-1.22 7.53-10.55 18.5-23.91 11.17-13.59 3.88-13.8-1.84-11.61z" class="C"/><path d="M278.11 260.25l-.8.16h0a1.93 1.93 0 0 1-1.3-.6 6.85 6.85 0 0 1 .07-9.24 1.43 1.43 0 0 1 2.35.76 13.83 13.83 0 0 1-.28 3.39c-.08 1.17.51 1.94 1 3a1.88 1.88 0 0 1-1.04 2.53zm6.32-5.07c-.24-.93-1.77-1.47-2.28-.43a7.49 7.49 0 0 0-.83 4.8l4.19-1.13a31.55 31.55 0 0 1-1.08-3.24zm-1-6.17a9 9 0 0 1 .74-3.86 2.09 2.09 0 1 0-3.74-1.79 7.51 7.51 0 0 0-.21 6.35 1.71 1.71 0 0 0 3.25-.71zm27.41-21.78c-1.67-1.16-3.84-2.06-5.82-1.15a1.71 1.71 0 0 0-.35 2.89c1 1 2.37 1.7 3.46 2.67s2.1 2.58 3.82 2.66a2.25 2.25 0 0 0 1-.15l1.36-1.66v-.05c.32-2.16-1.8-4.08-3.43-5.21zm2.86-2.21a1.1 1.1 0 0 0-.64 1.16c0 1.56 1.93 3 2.94 4.21l1-1.21q.93-1.12 1.68-2.13c-1.32-1.28-3.2-2.69-4.94-2.05z" class="J"/><g class="L"><path d="M264.84 257.48c1.25 6.71 10.5 12.09 32.54 27.83 3.05 2.18 24.2-15.21 21.07-17.7-3.95-3.14-20-14.47-21.24-15.15-10.76-5.74-33.21.46-32.37 5.02z"/><path d="M314.11 264.31s9.54 6.21 13.55 11a40.27 40.27 0 0 1 8 17.53c1.31 6.9-.27 24.5-5.42 24.93-4.66.39-2.13-17.52-2.13-17.52s.43 18.68-5.27 18.12-1.58-21.19-1.58-21.19 0 19.21-5.77 17.69c-4.37-1.14-1.69-20-1.69-20s-.1 16.51-4.64 15.53c-5-1.09-3.65-18.68-3.65-18.68-11.13-4.44-14.62-11.11-16.53-16.15-.49-1.23 25.13-11.26 25.13-11.26z"/></g><path d="M328.34 293.79l.21 6.61-.47 6.58a37 37 0 0 1-1.86 8.39c1.31-4.95 1.67-12.81 1.73-15s.24-4.38.31-6.57a0 0 0 1 1 .08-.01zm-7.93-.38l.12 8.41c-.07 2.81-.4 5.44-.67 8.23 0 .21-.13.13-.12-.09l.22-8.18.38-8.37c.01-.04.07-.04.07 0zm-6.75-1.55a63 63 0 0 1-.8 12.87c0 .21-.16.09-.14-.13.34-4.27.65-7.62.79-12.73.01-.08.15-.1.15-.01z" class="B"/><path d="M319.08 265.39L289.68 283c-.32-.11-25.15-18.47-24.84-25.5s22.8-10 32.35-5.07 21.89 12.96 21.89 12.96z" class="C"/><path d="M311.31 270.1l-4.43 2.68a3.54 3.54 0 0 1 .48-2.39c.74-1.2 2.66-1.8 3.73-.57.08.09.15.18.22.28zm-12.69-2.67c-1.64 1.05-1.59 3.55-1.09 5.23a4.73 4.73 0 0 0 3.34 3.44 1.6 1.6 0 0 0 1.72-2.36 5 5 0 0 1-.79-2.33c-.09-1.26.1-2.8-.95-3.72a1.9 1.9 0 0 0-2.23-.26zm6.09-7.4c-1.8 1.5-1.51 5.36.18 6.83a1.74 1.74 0 0 0 2.88-.84 5.65 5.65 0 0 0 .14-1.15c0-.42 0-.69.07-.93a9.38 9.38 0 0 0 .35-2.51 2.14 2.14 0 0 0-3.62-1.43zM298 277.76a1.94 1.94 0 0 0-2.67.05 3 3 0 0 0-.9 2.44l3.8-2.27zm-18.93-20.07c-.45-1-1-1.8-1-3a13.83 13.83 0 0 0 .28-3.39 1.29 1.29 0 0 0-.63-.89h0l-1.85.3h0a6.85 6.85 0 0 0 .08 9.07 1.9 1.9 0 0 0 3.13-2.09zm8.65 5.1c-.43-1.37-1.47-2.46-2-3.82a33.77 33.77 0 0 1-1.28-3.79c-.25-.93-1.77-1.47-2.29-.42a7.4 7.4 0 0 0-.72 5.32c.42 1.65 1.44 4.15 3 4.95s3.92-.25 3.3-2.24zm-7.2-12.66a1.74 1.74 0 0 0 2.53-.13c-.84 0-1.68.06-2.52.13z" class="J"/><g class="B"><path d="M310.25 261.46c-1.12.52-10.35 6.49-12.33 7.83l-12.05 8.29a.09.09 0 0 0 .1.15c2.17-1.16 10.4-6.59 12.44-7.91s11-7.43 11.95-8.23c.07-.07-.03-.17-.11-.13zm-24.94-11.34c2.35-.13 8.78 0 13.67 3.14.06 0 0 .11 0 .08-4.28-2.06-11.31-3.09-13.62-3.14-.1 0-.11-.08-.05-.08z"/><path d="M317.28,266.48l1.75-1.17v.16c-6.69-4.2-13.65-8.57-20.61-12.24l-.5-.27.32-.45a151.42,151.42,0,0,1,16.11-20c-5.41,6.62-10.5,13.51-15.29,20.58l-.18-.71a165,165,0,0,1,20.26,13l.12.09-.12.07-1.85,1Z"/><path d="M308.1 239.89a22.61 22.61 0 0 1 5-4 17.62 17.62 0 0 1-5 4zm-26.37 36.93a64.52 64.52 0 0 1 8.1 5.94h-.28l2.5-1.09-2.38 1.64a48.35 48.35 0 0 1-7.94-6.48z"/></g><path d="M331.28 229.33c-4.51 1.1-10.21-4.5-12.33-9-.14-.31.51-3.44 1.13-7.27.36-2.34.71-4.94.86-7.34l14.82 4.58a38.26 38.26 0 0 0-2 9.13 5.36 5.36 0 0 0 0 1v.16c.24 1.86.93 7.91-2.48 8.74z" class="L"/><path d="M335.76 210.28a38.26 38.26 0 0 0-2 9.13 4.52 4.52 0 0 0 0 1v.17a8.06 8.06 0 0 1-1.55 0c-9.13-1-10.42-11.63-10.61-14.63z" class="B"/><path d="M319.37 189.42c-1.39 5.41 2.09 20.72 6 24 5.72 4.75 14.75 4.83 18.7-2 3.83-6.59-1.06-26.46-5.44-29.4-6.4-4.3-17.19-.59-19.26 7.4z" class="L"/><g class="B"><path d="M335.27 198.31s-.07.07-.06.11c.25 1 .37 2.23-.48 2.77v.05c1.12-.4.94-2 .54-2.93z"/><path d="M334.12 197.44c-1.68.23-1.09 3.57.47 3.35s.94-3.55-.47-3.35zm7.22-.21s.09 0 .1.08c.15 1 .49 2.2 1.49 2.38v.06c-1.17.04-1.61-1.51-1.59-2.52z"/><path d="M342.08 196c1.64-.42 2.35 2.89.83 3.28s-2.21-2.94-.83-3.28zm-9.27.35c.47-.1.88-.26 1.34-.4a2.27 2.27 0 0 0 1.28-.66.74.74 0 0 0-.07-.88 1.8 1.8 0 0 0-1.78-.27 2.62 2.62 0 0 0-1.56 1.05.77.77 0 0 0 .79 1.16zm10.26-1.88c-.48 0-.92-.07-1.39-.11a2.26 2.26 0 0 1-1.39-.39.72.72 0 0 1-.11-.87 1.79 1.79 0 0 1 1.68-.63 2.59 2.59 0 0 1 1.75.71.76.76 0 0 1-.54 1.29zm-7.29 13.17c.25.25.49.59.87.63a2.65 2.65 0 0 0 1.14-.24 0 0 0 0 1 0 .06 1.39 1.39 0 0 1-1.34.54 1.12 1.12 0 0 1-.81-.95c.03-.06.11-.08.14-.04zm.78-3.2a3.62 3.62 0 0 0 2.63 1.15 4.56 4.56 0 0 0 1.27-.16l.46-.15a.26.26 0 0 0 .17-.27h0l-.46-2.2c.32.09 1.92.5 1.82.08a53.61 53.61 0 0 0-3.24-10.41.1.1 0 0 0-.18.06c.65 3.3 1.87 6.47 2.58 9.78a6.61 6.61 0 0 0-1.75-.21c-.06 0 .63 2.68.63 2.71a5 5 0 0 1-3.85-.49c-.09-.05-.15.04-.08.11z"/><path d="M339.9 205.05a4.18 4.18 0 0 1-1.44 1.56 1.94 1.94 0 0 1-1.12.26c-.86-.08-1-.83-1-1.5a4.29 4.29 0 0 1 .2-1 5.47 5.47 0 0 0 3.36.68z"/></g><path d="M338.46 206.61a1.94 1.94 0 0 1-1.12.26c-.86-.08-1-.83-1-1.5a2 2 0 0 1 2.12 1.24z" fill="#ff9cbd"/><g class="B"><path d="M322.17 184.58c.37 2.07 1.4 8.51.73 10s-2 5-3 5.74c-.86-4.25-1.17-8.42-.58-10.75a11.11 11.11 0 0 1 2.85-4.99z" opacity=".2"/><path d="M335.85 187.52a5.22 5.22 0 0 1-4.31 2.65 5.3 5.3 0 0 1-4.61-2.31 0 0 0 0 0-.07 0 5.24 5.24 0 0 0 4.69 2.68 5.34 5.34 0 0 0 4.41-3 .06.06 0 1 0-.11-.02zM328.08 176a8.17 8.17 0 0 0-6 5 5.85 5.85 0 0 0 .19 3.84c0 .05.12 0 .1 0a6.41 6.41 0 0 1 1.83-6.25 8.23 8.23 0 0 1 7-2.28 5.19 5.19 0 0 1 3.19 1.66c.07.09.28 0 .21-.12-1.18-1.68-3.86-2.44-6.52-1.85zm18.41 3a6.65 6.65 0 0 0-3.47-3c-2-.76-4-.19-6 .42-.05 0 0 .1 0 .08a9.16 9.16 0 0 1 5.2-.43 6.48 6.48 0 0 1 3.57 2.52 6.35 6.35 0 0 1-1 8.26 6.49 6.49 0 0 1-4.89 1.5c-.07 0-.1.09 0 .1a6.49 6.49 0 0 0 6.67-9.5z"/><path d="M318.82 192.81s-3.83-4.74-2.08-8.25c1-2 5.44-2.62 5.44-2.62a8.12 8.12 0 0 1 4.42-4.36c3.53-1.56 8.33-.25 8.33-.25s3.11-2.69 6.76-1.45c5.08 1.73 5.86 8.81 1.69 11.94-2.93 2.2-7.88.19-7.88.19-.41.14-4.23 3.59-8.24.36 0 0-2.2 2.88-4.91 1.69a3.92 3.92 0 0 1-3.53 2.75z"/></g><g class="C"><path d="M334.07 204.13a4.75 4.75 0 1 1 4.15-6.25h0a4.77 4.77 0 0 1-3 6 4.34 4.34 0 0 1-1.15.25zm-.66-8.83a3.93 3.93 0 0 0-1 .2 4.13 4.13 0 1 0 1-.2zm11.35 6.7c-1.81.13-3.6-1.6-4.07-4a5.7 5.7 0 0 1 .35-3.45 3 3 0 0 1 5-1 5.65 5.65 0 0 1 1.62 3.07c.5 2.57-.65 5-2.56 5.34zm-1.15-8.77a.85.85 0 0 0-.23 0 2.48 2.48 0 0 0-1.76 1.53 5 5 0 0 0-.31 3.06c.44 2.23 2.06 3.79 3.64 3.48s2.49-2.36 2.06-4.59a5.08 5.08 0 0 0-1.43-2.72 2.62 2.62 0 0 0-1.97-.76z"/><path d="M338.16 198.45l-.49-.4c.59-.73 2.07-1.84 3.45-.85l-.38.52c-1.23-.9-2.52.67-2.58.73zm-20.53 5.24l-.61-.18c.08-.28.85-2.79 2.2-3.28s9.76-1.31 10.13-1.34l.06.63c-2.44.24-9 .94-10 1.3s-1.58 2.18-1.78 2.87z"/></g><path d="M323.93,202.15s-3.8-4.77-6-3.38.89,8.44,3.61,9.26a2.7,2.7,0,0,0,3.52-1.68Z" class="L"/><path d="M318.88 200.77a0 0 0 0 0 0 .07c1.91.64 3 2.3 3.8 4a1.49 1.49 0 0 0-2.26-.27s0 .11.06.1a1.65 1.65 0 0 1 1.86.46 8.1 8.1 0 0 1 1 1.42c.1.17.39.06.32-.13h0c-.16-2.37-2.22-5.57-4.78-5.65z" class="B"/><path d="M341.39 280.51h81.68v4.63h-81.68z" class="F"/><path d="M344.78 277.83h59.68v2.67h-59.68z" class="H"/><g class="K"><path d="M404.46 277.82v2.67l-40.57.02 2.05-2.68 38.52-.01z"/><path d="M372.1 280.5l52.23-.02 7.55-36.85-52.24.02-7.54 36.85z"/></g><path d="M374.54 280.5l52.24-.02 7.54-36.86-52.24.03-7.54 36.85z" class="H"/><path d="M409.14 260.69a3.69 3.69 0 0 1-2.6 3.72c-1.49.31-2.75-.85-2.8-2.59a3.67 3.67 0 0 1 2.6-3.72c1.49-.31 2.74.9 2.8 2.59z" class="G"/><path d="M184.64 329.57l2.4 14.38 16.24 97.8h2.61l-11.8-97.8-1.75-14.38h-7.7z" class="F"/><path d="M192.34 329.57h-7.7l2.4 14.38h7.05l-1.75-14.38z" class="D"/><use href="#I" class="F"/><path d="M147.19 329.57l-1.74 14.38h7.05l2.4-14.38h-7.71z" class="D"/><use href="#I" x="-48.71" class="F"/><path d="M96.74 343.95h7.05l2.4-14.38h-7.71l-1.74 14.38z" class="D"/><path d="M89.08 336.33h119v-12.54h-44.55l-14.97-87.11H93.62l-4.54 99.65z" class="F"/><path d="M89.08 336.33h6.49l4.23-99.65h-6.18l-4.54 99.65z" class="D"/><path d="M194.08 283.56h8.13v40.23h-8.13z" class="F"/><path d="M194.08 283.56h8.13v6.83h-8.13z" class="D"/><path d="M265.12 412.35c-2 1.2-64.69 14.29-67.4 13.28-1-.38-3.47-9.39-6.1-20.37l-1.72-7.31-7.28-33.43 41.89-8.88 6.13 33.67 1.36 7.39s26.23 5.72 29.08 7.15 6.08 7.32 4.04 8.5z" class="M"/><path d="M192.63 409.45c2.23 9 4.2 15.85 5.09 16.18 2.7 1 65.37-12.09 67.4-13.28s-1.22-7.07-4.05-8.51c-1.76-.87-12.42-3.39-20.33-5.18 6.91 1.65 19.8 6.33-6.85 8.26l-41.26 2.53z" class="C"/><path d="M208.57 444.4c-2.27.63-66.2-2.67-68.56-4.34-.89-.62.61-14.65 1.28-17.12 2.27-8.36 14-45.18 14-45.18l42.77 2.08-17.57 41s23.91 12.21 26.3 14.32 4.05 8.61 1.78 9.24z" class="M"/><path d="M140 440.06c2.35 1.67 66.27 5 68.55 4.34s.63-7.16-1.75-9.26c-1.12-1-6.89-4.15-12.75-7.25 7.35 4.13 19 13.36-53.39-3.09-.66 7.32-1.13 14.93-.66 15.26z" class="C"/><path d="M109.4,318c12.74,14.19,55.55,3,58.11,8.63,2.25,5-27,85-27,85l46.75,5s40.35-88.35,25.93-113.88c-7.8-13.78-42.13-8.29-62.85-10.81-6.25-.76-9.18-13.65-9.18-13.65h-37S94.84,301.75,109.4,318Z" class="K"/><g class="B"><path d="M200.23 294.83l-39.25 30c-13-.27-41.58 4.24-51.58-6.9-14.57-16.23-5.22-39.69-5.22-39.69h37s2.93 12.89 9.18 13.65c14.56 1.81 35.8-.37 49.87 2.94zm-11.15 111.36c-1.29-.41-13.41-1.76-16.08-2.05-5.35-.58-22.2-2.15-25.25-2.14a.07.07 0 0 0 0 .14c2.65.56 13.4 1.81 16.08 2.09 5.36.55 23.76 2.33 25.25 2.19a.12.12 0 0 0 0-.23z"/><path d="M173.18 321.91c-3-1.49-25.79-.75-42.14-2.28-5.33-.5-10.67-1.64-14.74-5.13a24.34 24.34 0 0 1-7.27-12c-1.58-5.59-1.41-11.41-1.14-17.14.06-1.4.16-2.81.25-4.22 0-.08-.14-.09-.15 0-1.25 10.25-2.2 21.69 4.47 30.58a21.41 21.41 0 0 0 11.92 7.81c9.86 2.6 46.93 2 48.24 3 1.55 1.19-22.41 74.15-22.89 75.54-.09.26.37.44.48.18 2.36-5.63 25.58-75.03 22.97-76.34zm41.72-16.7c-2.2-5.59-7.23-9.08-14.63-10.41-.12 0-.11.16 0 .2 6.45 1.88 11.07 4.48 13.6 9.93 1.19 2.54 1.8 6.11 2.11 10.9 1.53 23.89-19.31 78.12-19.74 79.07a.074.074 0 0 0 .13.07c2.95-4.97 27.63-66.66 18.53-89.76z"/></g><path d="M231.8 387.17l-35.39 7.53s27.92-83.35 14.81-94.1c-3.64-3-11.57-4-21 0-14.06 6.08-30.34 18.46-45.69 23-14.37 4.25-31.43.34-37.3-6.12-12.34-13.58-3.06-39.24-3.06-39.24l50.9-1.91s-.76.62 1.67 2.77c0 0 29.93-6.78 42.93 1.16 23.46 14.36 32.13 106.91 32.13 106.91z" class="K"/><g class="B"><path d="M126.17 281.25a.09.09 0 0 0-.18 0 27.93 27.93 0 0 1-.44 5.7 9.87 9.87 0 0 1-2.56 4.75c-2.79 2.82-6.79 3.78-10.45 4.93-.2.07-.16.41.06.37 4.06-.62 8.33-1.65 11.29-4.7a9.87 9.87 0 0 0 2.63-5.1 12.24 12.24 0 0 0-.35-5.95zM210.34 299c-5.45-3.42-14-.82-18 .74-.09 0 0 .17 0 .13 3.74-1.34 13.07-3.38 18 .15 11.52 8.16-3.9 64-14 94.67-.16.48.22.35.43-.11 1.67-3.64 14.7-42.45 18.1-68.12.59-3.94 3.32-22.53-4.53-27.46z"/><path d="M227.77 377.76c-1.07 0-10.25 2-12.27 2.45-4 .91-13.41 3.33-15.59 4.17-.06 0 0 .14 0 .14 2.1-.2 7-1.28 9-1.74 4-.94 17.87-4.26 18.88-4.8.13-.05.08-.22-.02-.22zm-19.16-80.2c-3.67-2-8-2.33-12.09-1.83a42.44 42.44 0 0 0-12.35 3.86c-8.28 3.79-16.17 8.42-24.46 12.18s-17 6.68-26.13 7c-7.76.23-17.59-1.13-22.59-8.12-7.69-10.76-3.21-29.32-3.12-30.52 0-.09-.12-.09-.14 0-6 22.81 1.71 31.67 6.89 35.4 4.12 2.95 10 3.7 13.94 4 9 .76 18.1-1.45 26.47-4.79 8.59-3.42 16.64-8 24.86-12.23 7.89-4 16.68-8.19 25.69-5.88a22.91 22.91 0 0 1 3 1c.04.03.07-.05.03-.07z"/></g><g class="H"><path d="M172.55 245.52l-6.84.39a19.25 19.25 0 0 1-2.43-12c.1-.95-2.13 4.57-1.05 12.18l-25.63 1.39c-.23-3.21-.6-6.17-.6-6.17a33.83 33.83 0 0 1-1.27 6.27l-3.43.16a117.64 117.64 0 0 0-.91-13.66 42.9 42.9 0 0 1-4 13.87c-5.45.2-9 .25-8.81 0 8.06-9.35 1.92-14.36 4.11-22.43 2.62-9.66 11.2-11.48 10.8-18.66-.31-5.84-1.28-16.42 6.38-18.95a15.42 15.42 0 0 1 16-3.52c12.26 4.05 7.8 22.24 8.71 25.88 1.28 5.2 3.92 7 6 12.86s-.69 10.09-.93 14.2 5.27 8.13 3.9 8.19z"/><path d="M117.34 246.68a20.43 20.43 0 0 0 2.54-5.21 10.26 10.26 0 0 0-.13-5.49 54 54 0 0 1-1.12-5.74 14.78 14.78 0 0 1 .48-6 13.7 13.7 0 0 1 3.18-5.3 38.12 38.12 0 0 1 4.61-4 22.89 22.89 0 0 0 4.26-4 10.43 10.43 0 0 0 2.08-5.3 9.62 9.62 0 0 1-1.47 5.68 20.53 20.53 0 0 1-4.09 4.48 45.85 45.85 0 0 0-4.28 4 12.84 12.84 0 0 0-2.75 4.79 14.55 14.55 0 0 0-.47 5.47c.15 1.87.55 3.73.85 5.67a18 18 0 0 1 .26 3 8.46 8.46 0 0 1-.63 3 16.77 16.77 0 0 1-3.32 4.95zM162 190.87a28.09 28.09 0 0 1 1.79 6.92l.8 7.1.34 3.53a17.46 17.46 0 0 0 .62 3.37 18.5 18.5 0 0 0 3.45 5.92 26.19 26.19 0 0 1 2.05 3 16.52 16.52 0 0 1 1.43 3.45 23.7 23.7 0 0 1 .6 3.63 14.82 14.82 0 0 1-.13 3.7c-.2 1.22-.54 2.39-.81 3.53a17.75 17.75 0 0 0-.51 3.45 7.09 7.09 0 0 0 3.12 5.93 7.26 7.26 0 0 1-3.89-5.91 17 17 0 0 1 .25-3.64l.59-3.5a17.89 17.89 0 0 0-.7-6.78 15.62 15.62 0 0 0-1.34-3.12 24.94 24.94 0 0 0-2-2.87 35.38 35.38 0 0 1-2.09-3 14.72 14.72 0 0 1-1.51-3.42 17.94 17.94 0 0 1-.56-3.65l-.18-3.57-.33-7.1a33.3 33.3 0 0 0-.99-6.97z"/></g><g class="M"><path d="M138.56 226.2c1.49 12.5 13.11 38.5 18.95 43 3.75 2.87 19.52 5.64 27.72 5.35 3.37-.11 5-23.26 0-23.4a78.67 78.67 0 0 1-18.05-2.61c-.84-.23-7.08-6.9-19.95-23-4.81-6.06-9.51-6.38-8.67.66z"/><path d="M182.35 274.15a72 72 0 0 0 9.87 2.57c2.65.35 10.29 1.18 11-1.7.47-2-4-3-7.09-3.76-1.64-.41-3.79-1.75-3.48-2.81.53-1.86 4.78-.71 7.63.43 5.51 2.18 13.05 6.48 15.77 3.45 1-1.15-.6-2.72-2.85-4.16 3.53 1.54 7.22 2.69 8.41 1.46a1.73 1.73 0 0 0 0-2.36 2.29 2.29 0 0 0 2.43-.76c.89-1.26.13-2.8-1.26-4.29a1.27 1.27 0 0 0 .86-.77c1.71-3.71-10.85-11.78-14.83-12.12a86.45 86.45 0 0 0-23.6 1.78c-3.91 4.21-2.87 23.04-2.86 23.04z"/></g><path d="M197.43 261.26a19.47 19.47 0 0 1 8 1.78c3.15 1.47 5.38 3.4 8.12 5.27a.07.07 0 0 1-.08.11c-1.3-.89-6.65-4.17-8-4.89a18.56 18.56 0 0 0-8-2.22 0 0 0 0 1-.04-.05zm1.39-5.11a45.69 45.69 0 0 1 9.23 1.73c3.25 1.09 6 3.24 8.67 5.31a134.69 134.69 0 0 1 4.75 3.83c.07.06 0 .17-.07.12q-4.1-3.22-8.38-6.18a24.4 24.4 0 0 0-8.76-3.85c-1.79-.4-3.62-.65-5.44-.91-.03 0-.03-.06 0-.05zm2.55-4.67c3 .16 5.57.29 8.36 1.46a41.84 41.84 0 0 1 8.81 5.56l4.3 3.61c.06.05 0 .15-.08.1a97.55 97.55 0 0 0-10.12-7.41 19 19 0 0 0-5.4-2.47 34 34 0 0 0-5.87-.83s-.01-.02 0-.02z" class="B"/><path d="M181.45,274.46c-8.54-.43-20.71-2.83-23.94-5.3-5.84-4.46-17.46-30.46-18.95-43-.56-4.7,1.35-6.12,4.1-4.75Z" class="J"/><path d="M136.42 226.14c.81 5.58 5.18 16.28 5.18 16.28l20.91-2.6s-11.4-14.29-19.94-19.49c-3.43-2.08-6.98.17-6.15 5.81z" class="C"/><path d="M141.39 239.57l9.27-1.54 4.66-.54 4.68-.34c.08 0 .09.13 0 .14-1.56.09-3.11.4-4.66.58l-4.66.58-9.29 1.26c-.08.01-.09-.12 0-.14z" class="B"/><path d="M136.42 226.14c.81 5.59 5.17 16.27 5.17 16.27l15.68-1.94-15.8-20.65c-3.04-1.05-5.79 1.29-5.05 6.32z" fill="#020100" class="J"/><g class="C"><use href="#J"/><use href="#J"/></g><path d="M156.79 279.94l-55.53 1.7.12-.37 55.38-1.7zm-.34-3.58l-54 1.66c0 .13-.08.26-.13.38l54.14-1.67zm-.31-3.2l-52.55 1.62-.13.37 52.71-1.63zm-.32-3.2l-51.08 1.57c0 .13-.09.25-.13.37l51.25-1.58zm-.31-3.2l-49.6 1.52c0 .13-.09.25-.13.37l49.77-1.53zm-.31-3.21L107.11 265c0 .13-.09.25-.14.37l48.27-1.49zm-.31-3.2l-46.56 1.43c0 .13-.09.25-.14.37l46.74-1.44zm-45.3-1.82c0 .12-.09.24-.14.37l45.55-1.4.25-.37zm1.3-3.25l-.15.36 46.17-1.41.17-.37zm1.33-3.25l-.15.36 46-1.41c0-.12 0-.25.08-.37zm46.18-4.64l-44.8 1.38a4.12 4.12 0 0 0-.16.37l45-1.39zm-.89-3.18L115 245.52l-.16.36 42.79-1.31zM156 241l-39.48 1.22-.17.36 39.84-1.22c-.08-.08-.14-.2-.19-.36zm-1.79-3.15L118.07 239l-.18.36 36.52-1.12zm-1.95-3.15l-32.53 1-.19.36 32.95-1c-.08-.06-.16-.2-.24-.32zm-2.06-3.15l-28.7.88-.21.37 29.14-.9a2.09 2.09 0 0 1-.24-.31zm-2.2-3.11l-24.6.76-.23.36 25.07-.77zm-2.27-3.15l-20.1.62-.27.38 20.64-.64a3.75 3.75 0 0 0-.24-.36zm-2.45-3.13l-14.83.45-.17.17-.2.21 15.52-.48zm-5.6-3l-3.7.11a10.06 10.06 0 0 0-1.21.4l6.11-.18a8.93 8.93 0 0 0-1.17-.37z" class="G"/><path d="M153 258a15.13 15.13 0 0 0-3.43 0 14.53 14.53 0 0 0-1.61.24l-1.77.47c-.1 0 0 .17.05.15a15.14 15.14 0 0 1 1.79-.27l1.62-.2 3.34-.31c.01.01.01-.08.01-.08zm-1.42-2.42a31.28 31.28 0 0 0-7.48 1.42 47.79 47.79 0 0 1-7.64 2.26c-.1 0-.09.18 0 .16l3.76-.58c1.25-.23 2.47-.57 3.7-.88l7.66-2.17c.13-.03.13-.22 0-.21z" class="B"/><path d="M135 220.83c-.06 1 2.64 8.6 7.07 9.71 1.44.36 3.76-7.44 3.76-7.44l.3-.53 4.22-7.52-7.64-8.92-1.12-1.21-2.27 4.8-.17.38a5.62 5.62 0 0 0-.21.43l-.57 1.21-.42.94-.42 1a53.76 53.76 0 0 0-2.53 7.15z" class="M"/><path d="M139.32 209.72a17.31 17.31 0 0 0 6.81 12.85l4.22-7.52-7.64-8.92-1.12-1.21-2.27 4.8z" class="B"/><path d="M165.19 204.88c-1.89 15-11.09 15.58-14.33 15.17-2.94-.37-12.9-2-12.57-17.14s7.9-19 14.66-18.5 14.12 5.46 12.24 20.47z" class="M"/><path d="M163.73 202.42a8.93 8.93 0 0 1-1-.39 1.64 1.64 0 0 1-.91-.58.55.55 0 0 1 .11-.65 1.33 1.33 0 0 1 1.35-.08 2 2 0 0 1 1.1.9.57.57 0 0 1-.65.8zm-10.1-1.85h1.05a1.66 1.66 0 0 0 1-.24.55.55 0 0 0 .12-.65 1.35 1.35 0 0 0-1.25-.54 2 2 0 0 0-1.33.48.57.57 0 0 0 .41.95z" class="H"/><g class="B"><path d="M155.35 204.65s-.09 0-.09.07c-.12 1-.44 2.18-1.41 2.38a0 0 0 0 0 0 .05c1.15.02 1.55-1.52 1.5-2.5z"/><path d="M154.6 203.44c-1.62-.37-2.24 2.9-.74 3.24s2.14-2.92.74-3.24z"/><path d="M153.93 203.49c-.32.13-.66.41-1 .37s-.64-.43-.83-.81h-.07c-.13.63 0 1.32.65 1.54s1.14-.27 1.41-.87c.04-.09-.03-.28-.16-.23zm6.95 2.31s.07.07.06.11c-.24 1-.33 2.19.51 2.71v.06c-1.1-.38-.95-1.96-.57-2.88z"/><path d="M162 204.93c1.65.2 1.13 3.49-.4 3.3s-.99-3.47.4-3.3z"/><path d="M162.64 205.26c.23.21.44.57.75.64s.67-.23 1-.54h0c-.08.63-.39 1.25-1 1.27s-.89-.58-.94-1.23c-.02-.07.1-.23.19-.14zm-9.77 7.59c.17.3.3.69.65.83a2.69 2.69 0 0 0 1.13.09s.06 0 0 .06a1.37 1.37 0 0 1-1.42.14 1.08 1.08 0 0 1-.49-1.11c.03-.06.11-.06.13-.01zm5.13-2.55l-.36 2.24c0 .07-.19.06-.43 0h0a3.47 3.47 0 0 1-2.93-2.08c0-.08.08-.13.13-.07a5.16 5.16 0 0 0 2.83 1.65c.1-.18.21-2.65.32-2.63a6.68 6.68 0 0 1 1.51.76l.88-9.64a.1.1 0 0 1 .2 0 51.8 51.8 0 0 1-.52 10.43c-.1.42-1.41-.47-1.63-.66z"/></g><path d="M139.08 203.89c3.67.65 7.12-10.31 7.52-11.66-.21.86-1.32 5.44-1 5.7a3.88 3.88 0 0 0 1.19 0h0a10.63 10.63 0 0 1 .49-1.62 7.85 7.85 0 0 1-.1 1.6l.71-.05a13.72 13.72 0 0 1 1.1-3.42c.2-.42-.1 1.57-.05 3.37a44.55 44.55 0 0 1 9.89.35c.91.16 1.7.34 2.38.52.3-1.36.45-2.84.48-2.51a13.15 13.15 0 0 1 0 2.65 14 14 0 0 1 1 .3c.5-1.9.25-5.16.45-4.63a13.78 13.78 0 0 1 .85 5.13c1.26.53 1.56.87 1.67.53a16.37 16.37 0 0 0-2.75-11c-3.64-5.26-12.49-8.27-19-2.76 0 0-4.8 1.85-6.41 6.14s-.5 10.99 1.58 11.36z" class="H"/><path d="M137.56 208.44a3.32 3.32 0 0 0 .65.33 2.54 2.54 0 0 0 1.61.07 2.6 2.6 0 0 0 .65-.31 2.89 2.89 0 0 0 .74-.71v-4.13s-2.24-5.31-4.58-4.61-1.33 7.92.93 9.36z" class="M"/><path d="M137 201.14a0 0 0 0 0 0 .06c1.58 1.07 2.14 2.87 2.42 4.66a1.4 1.4 0 0 0-2-.82.05.05 0 0 0 0 .1 1.58 1.58 0 0 1 1.58.9 7.64 7.64 0 0 1 .52 1.55c0 .17.34.15.32 0v-.05c.51-2.23-.54-5.67-2.84-6.4z" class="B"/><path d="M137.9 207.86a.71.71 0 1 0 .71-.69.72.72 0 0 0-.71.69zm-1.18-1.33a.49.49 0 0 0 .49.5.5.5 0 0 0 .5-.49.495.495 0 1 0-.99-.01z" class="G"/><g class="M"><path d="M125.82 227.79c-3.8 7.66-13.55 35.84-11.22 42 3.55 9.36 34.44 4.5 42.5 4.42 2.73 0 1.55-23.6-1.31-24.2-2.49-.52-21.14 3.4-21.47 2.37-.27-.86.12-9.67-1.1-24-.95-11.14-5.42-4.59-7.4-.59zm35.36 20.55c7.16-.81 9.12.08 14.8-3.81 3.73-2.55 7-1.27 4.76 2.89-3.59 6.79-12.61 9.78-16 9.91z"/><path d="M142.05,254.72a73.53,73.53,0,0,1,15.68-5.86c5.21-1.12,16.83-2.29,27.62,9.43,2.56,2.78,4.23,8.55-1.59,5.53-4.14-2.14-6.12-4.76-8.75-5.57,0,0,1.26,7.6-1.63,10.06a70.27,70.27,0,0,1-8,5.87,15.67,15.67,0,0,1-1.24-1.39s-2.91,2-8.27,1.38Z"/><path d="M162.88 248.59c2.44 1.35 7.58 4.32 10.93 8.2 3.73 4.31 9.75 13.63 6.54 16.35-2.36 2-5-1.36-5-1.36s1.68 4.38-.84 5.71c-2.3 1.22-4.17-1.5-4.17-1.5s.56 2.83-1.88 3.58c-2.93.9-3.63-5.18-7.38-6.84-.82-.37 1.8-24.14 1.8-24.14z"/></g><g class="B"><path d="M168.6 260a22.71 22.71 0 0 1 6.82 11.7c0 .11 0 .19-.09.09a56.17 56.17 0 0 0-6.77-11.79 0 0 0 0 1 .04 0zm-4.25 3.86a25.48 25.48 0 0 1 6.12 12.14c0 .11-.07.19-.1.08a60.64 60.64 0 0 0-6.06-12.14s.02-.1.04-.08zm-5.92-15.14a20.09 20.09 0 0 1 8.19-.83l-8.19.83z"/><path d="M178.38 250.68l-1.07 1.1v-.07a44.88 44.88 0 0 1 6.3 4.59c1.92 1.72 3.83 3.78 4.28 6.56a1.79 1.79 0 0 1-1 2c-2.14.55-3.91-1.14-5.57-2.12-2.1-1.29-4.06-3.28-6.36-4.08l.32-.59c2.17 3.07 8.68 11.7 5.39 15.15-1.66 1.44-3.91.17-5.22-1.09l.25-.17c.59 1.85.82 4.53-1.18 5.57a3 3 0 0 0 1.39-2.52 8.08 8.08 0 0 0-.71-3.49l.46.39c2.06 2 5.64 2.38 5.36-1.4-.84-4.8-4-8.88-6.88-12.71a5.51 5.51 0 0 1 2.81 1c1.64 1.06 3.16 2.28 4.77 3.38 1.49.9 3.15 2.46 4.93 2.1.46-.16.63-.72.57-1.31-.32-2.48-2.13-4.6-3.93-6.29a50.54 50.54 0 0 0-6.06-4.83h-.05 0l1.14-1z"/></g><path d="M115.31 249.67l20.84-5.29a160.77 160.77 0 0 0-1-16.78c-1.17-7.91-4.38-9.32-9.68-1.08-3.47 5.48-10.16 23.15-10.16 23.15z" class="C"/><path d="M133.61 245c.21-.1 2.34-.71 2.5-.71l-.13-3.82v-1.9-2.12c0-.1.12-.11.13 0l.16 2.11.11 1.87.15 4.06a21.41 21.41 0 0 1-2.88.59s-.07-.08-.04-.08zm-16.08 1.19l8.65-2.62 4.38-1.09 4.43-.89c.08 0 .1.11 0 .13-1.47.28-2.92.77-4.37 1.13l-4.36 1.15-8.71 2.35c-.08-.01-.1-.14-.02-.16zm5.06-13.74a.063.063 0 1 0-.11-.06l-1.82 3.42a7 7 0 0 1 .46-1.41 9.63 9.63 0 0 0-.68 1.93l-2.18 4.59a68.51 68.51 0 0 0-3.31 8.76.22.22 0 0 0 .29.26l3-.72a.08.08 0 1 0 0-.15c-.87.19-1.79.28-2.69.39l3.34-8.35 3.7-8.66z" class="B"/><path d="M148.06 276.25h59.68v2.67h-59.68z" class="H"/><g class="K"><path d="M207.74 276.23v2.67l-40.57.02 2.04-2.67 38.53-.02z"/><use href="#K"/></g><use href="#K" x="2.44" class="H"/><path d="M212.41 259.11a3.65 3.65 0 0 1-2.6 3.71c-1.49.31-2.74-.84-2.8-2.58a3.67 3.67 0 0 1 2.6-3.72c1.5-.31 2.75.84 2.8 2.59z" class="G"/><path d="M147.74 278.93h81.68v4.63h-81.68z" class="F"/><path d="M569.19,103.72a22.91,22.91,0,0,0,36.57,18.4L617,125l-4.67-10.46a22.92,22.92,0,1,0-43.13-10.81Z" fill="#fffefd"/><g class="B"><path d="M569.19 103.72a22.82 22.82 0 0 0 24.87 22.6 22.54 22.54 0 0 0 11.62-4.59h.17l11.25 2.79-.51.61-4.71-10.44-.1-.22.11-.21c6.91-12.63-.3-29-14.28-32.53-14.16-3.88-28.49 7.3-28.42 22zm0 0c0-19.49 22.88-30.23 37.91-17.81 8.36 6.74 10.93 19.45 5.64 28.85v-.43l4.63 10.48.37.83-.88-.23-11.21-2.94.31-.06a23.18 23.18 0 0 1-11.88 4.38c-13.18 1.14-25.08-9.82-24.91-23.07z"/><use href="#L"/><use href="#L" x="10.59"/><use href="#L" x="21.17"/></g><defs ><path id="B" d="M122.3 69.59a2.52 2.52 0 1 1-2.52-2.52 2.52 2.52 0 0 1 2.52 2.52z"/><path id="C" d="M148.6 107.33h452.79v286.69H148.6z"/><path id="D" d="M159 112.85a2.09 2.09 0 1 1-2.09-2.09 2.09 2.09 0 0 1 2.09 2.09z"/><path id="E" d="M167.51 112.85a2.09 2.09 0 1 1-2.08-2.09 2.08 2.08 0 0 1 2.08 2.09z"/><path id="F" d="M184.55 169.78h8.78v2.15h-8.78z"/><path id="G" d="M203.69 169.78h51.89v2.15h-51.89z"/><path id="H" d="M369.83 425.19c-4.29-1-9.61-.6-13.06 2.32-.13.11 0 .3.17.27a60.62 60.62 0 0 1 12.84-2 .28.28 0 0 0 .05-.59z"/><path id="I" d="M133.64 441.75h2.62l16.24-97.8 2.4-14.38h-7.71l-1.74 14.38-11.81 97.8z"/><path id="J" d="M156.91,281.12,100.8,283s15.42-48.16,27.51-60.26c5.5-5.5,10.67-4.47,14.95-.67,1.07.95,14.12,18.68,15.07,24.75.85,5.35-3.67,11.12-3.67,11.12Z"/><path id="K" d="M175.38 278.92l52.23-.02 7.54-36.86-52.23.02-7.54 36.86z"/><path id="L" d="M583.18 104.67a2 2 0 1 1-2-2 2 2 0 0 1 2 2z"/></defs></svg>